{"glyphs":{"0":{"ha":589,"x_min":-8,"x_max":649,"o":"m 354 824 q 420 795 420 817 q 422 762 418 795 q 370 779 422 767 l 333 779 q 275 753 323 771 q 179 682 235 731 q 62 481 87 592 l 64 470 q 47 395 47 412 l 50 382 l 47 371 l 64 279 q 178 189 106 189 q 205 186 186 186 l 215 186 q 332 215 266 186 q 441 290 381 238 q 450 304 446 290 q 524 376 462 304 q 541 404 530 376 q 564 441 548 404 l 581 441 q 578 435 581 435 l 583 435 q 600 446 600 447 l 600 446 l 600 446 q 595 428 595 439 l 574 428 l 574 431 l 564 426 l 564 441 q 592 469 564 454 l 599 479 l 605 473 q 574 454 600 463 q 602 544 602 529 q 600 554 600 549 q 606 575 604 563 l 604 579 l 604 586 l 606 598 q 602 625 602 606 l 628 612 l 609 612 q 610 618 609 616 q 616 625 616 608 l 612 625 q 612 623 612 623 q 618 612 612 623 l 600 603 q 592 630 600 618 l 595 630 l 596 628 l 600 633 q 585 663 595 645 l 587 668 q 510 747 552 726 l 510 758 q 425 806 465 780 l 425 824 l 439 824 q 458 810 458 823 q 449 805 449 793 l 422 805 q 476 817 469 817 q 536 773 536 780 q 564 754 536 772 q 606 706 595 731 q 621 678 618 706 q 649 581 649 637 q 642 498 649 526 l 646 498 l 606 417 q 566 352 579 372 q 522 296 561 352 q 323 154 386 166 q 236 130 260 130 l 236 130 q 215 128 215 137 q 110 156 172 128 q 59 194 102 156 q 42 218 53 194 q 23 253 32 226 q 17 264 17 253 l 17 269 q 18 272 17 272 q 3 331 3 296 q -5 363 0 331 q 3 366 2 363 l 3 363 l -3 373 q 0 376 0 379 q -8 387 -1 376 l -2 398 q -5 403 -2 398 q 5 443 -2 429 l 3 460 q 7 470 7 467 q 5 477 7 471 l 16 517 l 14 522 q 108 684 55 615 q 176 741 161 738 q 300 814 191 763 l 354 824 m 475 797 l 475 799 l 475 799 l 475 799 l 475 797 m 616 575 l 616 566 l 625 578 q 616 578 616 578 l 616 578 l 616 575 m 616 562 l 616 557 l 621 557 l 621 562 l 616 562 m 616 541 l 616 536 l 621 536 l 621 541 l 616 541 m 610 515 q 612 507 612 515 l 620 519 q 612 517 612 519 l 610 515 m 572 420 l 572 416 l 576 416 l 576 420 l 572 420 m 559 392 l 559 390 l 564 390 l 564 392 l 559 392 z "},"1":{"ha":380,"x_min":-3,"x_max":422,"o":"m 408 793 l 412 793 q 422 767 422 773 q 395 705 421 748 q 336 574 355 625 q 317 526 333 572 q 295 481 311 526 q 245 351 266 417 q 237 321 241 351 q 200 235 230 318 q 189 217 198 235 l 189 214 l 189 214 q 257 228 219 214 l 280 228 l 342 240 l 342 239 l 342 239 l 349 239 q 350 233 349 233 l 353 233 q 372 237 370 237 l 381 237 q 389 227 389 235 q 295 193 336 203 q 157 149 295 184 q 40 134 91 134 q -3 165 7 134 l -3 169 q 64 195 -3 191 q 68 192 68 192 q 117 201 75 197 l 127 201 q 157 214 127 202 l 162 239 l 158 239 q 181 310 172 269 q 189 313 189 313 q 187 326 187 317 q 205 374 193 327 q 231 445 218 393 q 255 511 234 446 q 273 545 261 511 q 281 549 281 549 l 281 549 l 275 549 l 275 555 q 306 612 295 599 q 330 670 315 650 l 330 674 l 331 674 l 241 593 q 214 582 241 585 q 198 612 198 601 q 254 662 198 618 q 361 756 301 710 q 359 764 359 760 q 408 793 391 792 z "},"2":{"ha":524,"x_min":-98,"x_max":616,"o":"m 465 784 l 496 784 q 540 730 530 784 l 540 721 q 395 530 540 684 q 274 420 351 493 q 165 332 248 397 q 57 225 165 322 q 33 204 33 206 l 33 205 l 31 205 q 172 231 43 205 l 176 229 q 235 240 193 236 q 266 249 235 243 l 266 247 q 364 260 298 260 q 372 264 365 264 l 395 264 q 415 270 406 264 q 427 264 423 264 q 467 277 435 277 q 471 267 471 271 l 471 267 q 500 281 488 281 l 509 281 q 508 274 509 274 q 519 286 512 284 l 530 286 l 530 275 q 523 273 523 275 q 532 269 523 271 q 552 284 552 271 l 561 279 q 568 286 568 279 q 583 281 577 281 l 583 271 l 562 267 q 564 270 562 270 q 487 232 541 245 q 471 235 471 232 q 412 215 460 229 l 407 217 q 323 198 353 208 q 318 201 319 201 l 134 160 l 60 144 q -59 113 13 127 q -94 146 -94 121 l -98 161 q -32 222 -98 170 q 5 257 -14 222 q 33 270 33 267 q 111 337 58 298 q 135 359 111 341 q 159 385 135 374 q 178 397 159 389 q 215 426 178 408 q 228 446 228 437 l 243 446 q 255 465 245 465 l 266 463 q 290 492 266 481 q 330 525 290 506 q 359 554 330 541 q 392 591 359 566 q 414 616 392 604 q 454 667 414 627 q 478 701 454 673 q 492 734 478 711 q 491 736 491 736 q 290 654 411 736 q 155 547 194 587 q 128 522 144 522 q 104 552 104 534 q 210 662 104 582 q 232 684 222 667 q 294 722 237 684 q 332 745 302 722 l 404 771 q 410 774 404 774 l 435 774 q 465 784 435 784 m 604 283 l 608 283 q 616 273 616 282 l 608 270 l 595 270 q 604 283 595 279 z "},"3":{"ha":491,"x_min":-193,"x_max":530,"o":"m 349 785 q 474 713 448 785 q 443 642 460 642 q 395 589 443 627 l 382 574 q 445 548 416 563 q 485 514 460 548 q 519 470 500 514 q 530 393 528 470 q 503 327 530 380 q 393 213 503 303 q 144 134 260 134 q 134 131 140 134 q 118 136 124 136 q 113 131 113 135 l 98 134 l 83 132 q 68 136 73 136 q 62 134 66 136 q -8 153 -8 146 q -9 144 -9 152 q -62 172 -26 159 q -98 190 -62 184 q -115 205 -115 201 l -115 213 q -105 224 -115 218 q -93 212 -98 224 q -87 209 -92 212 l -75 212 q -54 199 -58 206 q -1 182 -1 195 q 5 185 -4 182 q 43 173 37 180 l 51 173 l 58 178 l 64 178 l 64 171 q 62 168 62 166 l 61 168 q 63 178 63 168 l 102 178 q 117 165 112 165 l 117 166 l 112 174 l 151 180 q 168 178 161 178 q 234 195 168 180 q 376 260 304 213 l 409 279 q 446 315 409 294 q 470 353 446 321 q 490 404 470 359 q 492 425 492 416 q 471 479 487 461 q 382 529 422 529 l 382 524 q 366 532 370 532 q 236 497 294 532 q 158 478 176 478 q 131 508 131 489 q 263 572 131 541 q 335 600 316 572 q 412 669 352 600 q 426 718 426 686 q 349 739 390 739 l 344 739 q 85 649 213 739 q 57 615 72 641 q 44 612 50 612 q 26 646 33 612 q 58 685 56 685 q 103 715 87 701 q 143 739 143 733 l 158 739 q 229 768 158 749 q 349 785 293 785 m -193 275 l -179 275 l -179 256 q -193 261 -188 261 l -193 275 m -172 260 q -155 245 -155 254 l -154 245 l -149 245 q -113 226 -139 231 l -113 220 q -127 209 -113 216 q -184 251 -147 220 q -172 260 -184 260 m -23 182 q -22 180 -23 180 l -20 180 l -20 182 q -22 183 -20 183 q -23 182 -23 183 z "},"4":{"ha":419,"x_min":-15,"x_max":433,"o":"m 261 813 l 281 813 q 297 789 297 804 l 297 785 q 256 743 297 774 q 224 713 256 739 q 98 586 221 703 l 45 528 l 45 528 q 88 519 59 519 l 116 519 l 131 515 q 145 519 138 519 q 163 515 148 519 q 253 526 170 519 q 268 524 262 524 q 304 536 268 528 q 332 585 315 543 l 329 585 q 370 704 360 659 q 378 720 374 705 l 376 725 q 387 783 380 730 q 412 793 401 793 q 433 760 426 783 q 390 601 421 683 q 372 556 372 562 l 404 556 l 404 549 l 379 520 q 345 484 345 507 l 322 446 q 272 334 322 433 q 270 327 270 330 q 276 328 270 328 q 263 307 263 309 l 266 302 q 250 273 266 298 q 191 125 250 267 q 182 121 182 119 q 186 113 186 120 q 151 56 174 77 q 139 79 136 45 l 153 99 l 153 100 q 149 99 153 99 q 171 151 160 137 l 171 151 q 163 157 168 157 l 189 244 l 189 248 q 222 339 218 308 q 236 359 233 359 l 236 357 l 231 365 q 263 425 256 425 l 263 424 q 259 422 263 422 l 283 479 q 283 481 283 481 l 287 481 l 182 463 q 176 465 178 465 l 165 463 l 154 465 q 115 456 115 463 l 101 463 q 83 457 83 461 q -3 497 -3 480 q -14 523 -9 497 l -12 536 l -15 542 q 56 610 50 610 q 80 637 62 614 q 127 675 88 637 q 159 707 159 703 q 184 728 170 722 q 236 789 184 733 q 261 813 236 793 m 241 337 l 241 341 l 239 341 l 239 337 l 241 337 z "},"5":{"ha":433,"x_min":-374,"x_max":722,"o":"m 232 849 l 243 849 q 262 819 262 833 q 229 786 262 814 q 213 768 229 783 q 216 768 213 768 q 332 793 281 789 q 382 802 332 802 l 391 802 q 428 811 422 807 l 435 811 q 437 802 435 807 l 437 802 q 454 813 437 813 l 471 812 q 480 818 471 810 l 496 815 l 507 815 q 553 825 535 825 q 557 818 553 820 l 565 818 q 572 825 565 825 l 593 822 l 595 827 l 608 825 l 629 825 q 684 812 684 825 l 684 813 l 679 813 q 682 821 679 813 q 722 803 722 812 l 722 798 q 709 787 712 798 l 702 791 l 695 791 q 661 777 688 783 q 653 780 657 780 q 644 775 650 780 q 627 778 627 775 q 613 773 616 773 q 606 775 610 773 q 469 762 552 775 l 462 762 q 410 753 450 753 l 410 753 q 203 712 398 748 q 164 703 198 706 q 138 663 159 700 q 106 573 106 621 q 116 567 107 567 q 233 600 136 567 q 271 616 264 609 l 286 616 q 318 618 298 616 q 332 614 330 614 l 343 616 q 414 566 380 616 l 428 540 l 426 526 q 431 512 426 520 q 424 498 424 500 l 427 498 q 398 414 416 435 q 367 367 391 395 q 311 311 357 348 q 253 258 292 277 q 212 232 252 258 q 119 177 210 222 q -66 128 -14 128 q -77 125 -66 125 l -99 125 q -117 132 -108 125 q -151 128 -125 132 q -195 140 -160 134 q -235 153 -195 144 l -285 180 q -336 223 -297 197 q -358 249 -336 232 l -358 253 q -356 258 -356 257 l -374 271 q -361 285 -369 285 q -329 262 -345 262 q -308 239 -329 250 q -176 182 -227 182 q -170 168 -170 174 l -172 168 q -153 177 -161 177 q -128 175 -149 177 l -115 177 q -86 175 -100 175 l -68 175 l 9 193 q 41 206 41 196 l 50 202 l 52 202 q 76 213 64 213 q 77 208 77 208 l 77 208 l 77 209 l 72 217 q 140 243 114 221 l 189 272 q 220 294 189 281 l 229 294 q 246 305 229 302 l 262 317 q 296 363 262 328 q 317 385 306 363 q 340 408 325 385 q 360 446 343 408 q 379 469 363 446 q 372 468 379 468 q 381 494 381 484 l 381 532 q 344 564 381 558 l 290 564 q 281 562 286 564 q 273 564 277 564 q 160 525 245 548 q 127 515 150 515 l 109 515 q 65 547 65 524 l 56 578 l 56 597 q 97 684 81 662 q 99 692 97 689 q 99 694 99 692 q -64 672 41 684 q -85 693 -85 682 q -40 726 -85 726 q 25 735 -35 729 q 110 748 25 741 q 129 755 110 751 l 141 753 l 169 783 q 198 814 188 810 q 232 849 213 849 m -192 166 l -192 168 l -192 168 l -192 166 l -192 166 z "},"6":{"ha":611,"x_min":-3,"x_max":640,"o":"m 257 783 l 260 783 q 289 755 289 776 q 242 728 284 743 q 163 639 173 668 q 83 490 83 523 q 49 361 60 436 q 51 354 51 357 q 47 342 47 347 l 47 329 q 51 312 51 314 l 51 307 l 49 295 q 85 219 58 255 q 167 182 112 197 l 185 182 q 260 194 234 188 q 343 225 340 221 q 326 252 326 247 q 311 289 314 271 l 311 296 q 315 303 315 302 q 312 302 315 302 l 315 316 l 313 328 q 359 427 313 353 q 379 450 366 430 q 415 481 407 470 q 431 494 426 481 q 488 526 437 494 q 528 541 525 541 l 558 541 l 563 538 l 571 541 q 638 483 619 523 l 638 470 q 640 460 638 464 q 614 384 640 416 l 598 349 q 553 299 557 310 q 475 243 495 252 q 439 221 469 235 q 395 195 439 205 q 249 138 286 138 l 224 130 l 153 130 q 87 161 87 146 q 45 193 70 163 q 7 269 12 241 q 0 278 7 269 l 3 283 l 3 286 q -3 302 -3 293 l 1 315 q -3 328 -3 322 l -3 337 q 1 353 1 351 l 1 373 q 5 391 1 383 l 3 401 q 7 412 7 408 q 3 411 7 411 q 11 427 11 427 l 7 427 q 36 501 23 479 q 103 640 36 545 q 132 675 103 644 q 153 704 132 690 q 197 743 153 707 q 235 777 206 767 q 257 783 252 783 m 361 301 l 361 293 q 382 250 368 250 q 463 296 399 253 q 524 346 468 296 q 566 385 534 346 q 587 418 566 395 q 594 460 594 443 q 570 483 594 468 l 549 483 q 425 418 490 477 q 367 317 380 374 q 361 301 361 307 z "},"7":{"ha":413,"x_min":-98,"x_max":556,"o":"m 535 833 q 556 802 552 833 q 509 770 556 787 q 372 614 456 731 q 224 407 296 517 q 183 342 210 402 q 137 274 160 303 q 120 244 137 264 q 72 163 92 190 q 52 125 72 153 q 13 65 33 87 l 9 65 q -7 85 -7 71 q 16 109 7 109 l 16 107 l 14 132 q 30 142 30 138 q 27 140 30 140 q 43 165 31 165 l 43 163 l 39 170 l 39 174 l 45 183 l 45 197 q 71 235 57 198 l 71 244 q 85 247 81 247 l 85 245 q 79 253 79 245 l 79 258 q 91 256 91 258 q 87 264 87 256 l 87 269 q 100 292 100 276 q 119 319 113 292 q 132 333 127 319 q 155 374 132 343 q 165 389 155 382 q 172 401 165 401 l 172 403 q 168 401 172 401 q 199 443 176 426 q 212 468 199 453 q 233 493 220 488 l 233 490 l 231 490 q 242 509 231 498 q 252 524 242 512 q 277 557 252 545 l 300 599 q 314 614 306 599 q 333 629 333 629 q 331 629 333 629 q 353 656 331 637 q 372 684 353 671 q 385 708 375 688 q 403 733 391 708 q 429 753 407 733 l 429 760 q 341 742 378 754 q 313 737 324 742 l 300 740 l 96 701 l 96 702 q -25 690 85 697 q -30 692 -28 692 q -72 683 -64 689 q -98 709 -83 683 l -98 713 q 18 742 -98 742 q 92 753 28 746 q 223 776 117 765 q 275 787 245 783 q 297 785 288 785 q 316 794 297 790 l 334 794 q 395 803 377 803 l 406 803 q 464 819 406 809 q 475 817 475 817 q 535 833 521 833 m 3 58 l 3 48 q -18 28 3 44 q -20 34 -18 34 q 3 58 -18 58 z "},"8":{"ha":387,"x_min":-73,"x_max":436,"o":"m 210 874 q 245 872 236 871 l 255 873 l 264 867 l 270 868 q 275 876 277 869 l 294 866 q 304 868 296 868 q 313 861 304 864 q 320 865 314 864 q 376 832 355 854 q 422 770 418 806 q 429 757 427 771 l 429 753 l 433 753 l 436 737 q 431 694 431 700 q 338 579 415 642 q 291 540 296 549 q 225 492 225 496 q 342 323 316 397 q 350 287 347 307 l 351 283 q 349 264 352 272 q 353 250 352 257 q 306 163 338 191 q 256 126 303 155 q 188 99 247 114 q 189 94 189 99 l 180 98 q 157 94 168 95 l 81 104 q 31 123 52 121 q -12 151 24 134 q -56 206 -45 183 q -54 213 -54 210 q -68 239 -66 232 l -67 239 q -70 247 -69 241 q -52 286 -73 264 l -52 286 l -58 292 l -58 296 q -31 332 -54 307 q 18 395 -32 342 q 54 422 54 420 q 63 433 52 433 q 70 431 67 431 q 97 464 83 441 q 156 507 103 464 l 156 507 q 64 633 106 559 l 66 638 l 54 663 l 55 671 l 52 675 q 55 686 55 684 l 52 690 q 68 746 54 726 q 187 797 112 785 q 256 766 225 794 q 268 748 256 761 l 270 741 q 254 729 253 737 q 188 758 210 756 q 169 759 180 758 l 110 720 q 96 684 94 697 l 100 661 q 144 583 117 617 q 163 559 144 578 q 188 531 188 531 l 191 531 q 232 559 200 532 l 256 570 q 262 569 261 568 q 279 594 264 569 l 286 595 q 321 625 286 600 q 340 637 330 636 q 339 633 340 633 q 357 658 338 641 q 367 672 356 665 l 370 670 q 379 685 379 682 q 394 726 395 718 l 392 744 l 395 751 l 395 753 q 356 804 380 789 q 272 843 316 837 q 227 851 271 847 q 201 860 216 861 l 199 870 l 210 874 m 247 554 l 247 554 q 248 553 248 553 q 250 557 249 553 l 250 555 l 247 554 m -18 222 q 77 146 3 178 q 121 139 78 146 l 125 142 q 136 138 136 139 q 165 142 153 142 l 183 144 q 248 179 244 165 q 300 241 269 181 l 303 279 q 243 410 292 351 q 190 469 208 454 q 147 437 180 467 l 100 407 q 28 336 100 404 q -18 222 -26 277 z "},"9":{"ha":387,"x_min":-17,"x_max":426,"o":"m 263 826 l 266 826 q 374 726 321 826 q 353 702 363 702 q 298 768 327 723 q 269 782 282 782 l 250 786 q 115 714 211 781 q 43 618 76 680 q 31 577 31 583 l 31 559 q 83 477 31 494 q 114 473 100 477 l 120 473 q 258 534 170 478 q 277 554 262 534 q 323 607 286 554 q 335 628 333 607 q 353 638 348 638 l 353 635 q 349 644 349 641 q 375 738 375 715 q 395 747 385 747 q 426 719 426 739 l 426 713 q 382 548 393 584 l 357 462 q 335 380 353 433 q 315 302 335 372 l 317 302 q 241 87 272 137 q 228 66 228 77 l 217 66 q 216 72 217 72 l 215 72 l 215 73 l 217 52 l 210 48 l 203 48 l 203 62 q 203 68 203 68 l 203 68 l 203 83 q 217 106 217 83 q 225 121 220 121 l 224 123 l 224 132 q 242 218 233 161 q 262 292 251 262 q 296 424 284 364 q 309 470 302 424 q 331 544 331 540 q 330 545 331 545 l 329 545 q 265 490 273 490 q 212 455 249 468 q 120 424 189 432 l 115 424 q 22 462 64 424 q -12 534 -12 500 l -17 539 q -12 551 -12 548 q -16 559 -16 557 l -16 568 l -10 575 q -14 585 -14 579 q -1 625 -7 619 q 8 640 2 625 l 6 643 l 6 646 q 15 659 6 648 l 15 658 l 12 663 q 58 720 55 720 q 106 760 59 729 q 117 773 111 771 l 121 773 l 123 772 q 166 800 137 800 q 263 826 178 826 z "},"\u0000":{"ha":0,"x_min":0,"x_max":0,"o":""},"\u001d":{"ha":0,"x_min":0,"x_max":0,"o":""}," ":{"ha":345,"x_min":0,"x_max":0,"o":""}," ":{"ha":345,"x_min":0,"x_max":0,"o":""},"!":{"ha":205,"x_min":-11,"x_max":208,"o":"m 170 933 l 186 933 q 208 906 208 921 q 167 725 186 767 q 169 717 169 722 q 106 524 121 540 q 95 498 101 524 l 95 485 q 81 463 86 485 l 73 463 q 62 474 62 463 l 62 481 q 74 519 70 491 l 74 559 q 99 656 90 559 q 112 661 109 656 l 109 667 l 109 678 q 116 696 116 688 l 111 696 q 151 912 151 817 q 170 933 153 924 m 68 469 l 83 469 l 83 460 q 68 423 83 454 l 61 423 q 50 435 50 423 q 68 469 55 469 m 28 344 l 33 344 q 65 310 60 344 q 31 281 56 281 q -11 313 3 281 q 28 344 1 344 z "},"\"":{"ha":182,"x_min":0,"x_max":0,"o":""},"#":{"ha":610,"x_min":0,"x_max":0,"o":""},"$":{"ha":480,"x_min":0,"x_max":0,"o":""},"%":{"ha":442,"x_min":0,"x_max":0,"o":""},"&":{"ha":498,"x_min":0,"x_max":0,"o":""},"'":{"ha":107,"x_min":0,"x_max":0,"o":""},"(":{"ha":339,"x_min":0,"x_max":0,"o":""},")":{"ha":349,"x_min":0,"x_max":0,"o":""},"*":{"ha":216,"x_min":0,"x_max":0,"o":""},"+":{"ha":474,"x_min":0,"x_max":0,"o":""},",":{"ha":185,"x_min":0,"x_max":0,"o":""},"-":{"ha":408,"x_min":0,"x_max":0,"o":""},"­":{"ha":408,"x_min":0,"x_max":0,"o":""},".":{"ha":88,"x_min":0,"x_max":0,"o":""},"/":{"ha":339,"x_min":0,"x_max":0,"o":""},":":{"ha":204,"x_min":0,"x_max":0,"o":""},";":{"ha":257,"x_min":0,"x_max":0,"o":""},";":{"ha":257,"x_min":0,"x_max":0,"o":""},"<":{"ha":408,"x_min":0,"x_max":0,"o":""},"=":{"ha":477,"x_min":0,"x_max":0,"o":""},">":{"ha":450,"x_min":0,"x_max":0,"o":""},"?":{"ha":447,"x_min":0,"x_max":0,"o":""},"@":{"ha":490,"x_min":0,"x_max":0,"o":""},"A":{"ha":1061,"x_min":-259,"x_max":1096,"o":"m 616 960 l 631 953 l 645 953 q 647 956 647 953 q 667 948 659 948 l 669 948 l 669 953 l 673 953 q 778 840 774 913 q 733 747 779 817 q 452 558 594 610 q 276 501 420 534 q 112 479 185 479 q 14 517 16 498 l 12 517 q -44 451 -4 517 q -117 334 -83 403 q -201 64 -208 168 q -138 -16 -183 -16 q -99 -22 -137 -22 l -94 -22 q 117 61 -15 -22 q 159 78 116 65 q 200 102 171 92 q 235 128 199 117 q 262 152 234 138 q 294 178 261 162 q 365 240 294 186 q 435 305 435 303 q 483 353 483 345 l 492 353 q 490 346 490 348 l 495 343 l 498 343 l 497 355 l 499 360 l 511 357 q 515 362 516 357 l 508 372 l 508 374 q 519 387 517 374 l 526 391 l 531 391 l 538 387 l 541 391 l 535 398 l 535 401 q 598 465 599 458 l 648 508 q 703 566 648 517 q 747 621 728 621 l 752 621 q 785 589 784 611 q 728 503 785 583 q 675 321 671 393 q 678 315 676 319 q 677 307 676 310 q 718 252 690 252 l 723 252 q 956 434 788 256 l 983 453 q 981 456 983 456 l 996 475 l 994 475 q 1025 506 1008 506 l 1026 503 q 1024 496 1023 499 l 1034 496 q 1040 515 1040 498 l 1051 515 q 1083 549 1068 549 l 1086 544 q 1078 520 1086 538 l 1073 523 l 1067 523 q 1059 498 1059 503 q 1065 494 1064 498 q 1044 484 1049 484 q 1051 477 1044 482 q 1018 437 1042 456 q 968 377 1019 422 q 771 205 879 271 q 749 197 749 200 q 742 202 743 199 l 728 199 q 624 302 650 199 q 620 338 624 309 l 630 415 l 627 415 l 457 252 q 375 180 452 252 q 332 144 369 180 q 173 37 198 37 q 18 -49 132 -3 l -53 -73 l -62 -71 q -77 -75 -77 -72 l -81 -73 q -110 -75 -85 -73 q -198 -39 -180 -61 q -242 20 -241 -9 q -257 66 -249 20 l -256 87 l -259 99 q -227 221 -246 179 q -190 317 -223 224 q -168 355 -167 330 q -131 415 -149 393 l -111 410 q -109 420 -109 418 l -115 422 l -126 422 l -127 427 l -115 427 l -115 432 l -117 437 q -109 444 -108 437 l -109 446 l -113 446 l -113 448 q -100 456 -111 456 q -92 448 -99 452 q -81 467 -80 454 q -94 475 -81 474 l -94 482 q -69 511 -90 482 q -37 537 -52 537 q -27 568 -31 568 l -24 568 l -24 561 l -17 561 l -17 563 l -20 575 q -16 580 -16 575 l -3 578 q 13 587 13 584 l 12 592 q 0 599 12 598 l 0 602 q 73 671 25 622 l 75 671 q 90 661 80 661 l 92 666 l 92 671 q 79 680 80 671 l 119 692 l 119 697 l 95 697 l 95 699 q 170 760 147 734 q 180 762 174 762 l 182 762 l 182 760 l 176 749 l 176 745 l 178 745 q 203 779 184 745 l 223 795 l 235 793 l 240 793 q 269 802 248 800 q 281 826 281 821 l 286 824 l 291 824 q 304 836 298 836 q 310 831 306 831 l 319 831 l 328 848 q 340 852 340 848 q 332 855 335 855 q 326 852 328 852 l 325 855 q 339 862 325 860 q 345 857 340 857 l 349 857 l 353 860 l 351 865 l 351 867 q 357 874 351 870 l 358 867 l 360 867 q 388 888 377 888 q 411 901 387 896 l 416 901 l 412 893 q 416 888 412 888 q 421 896 421 888 l 420 903 q 448 915 425 903 l 451 915 l 451 912 q 458 915 456 915 l 456 920 l 455 922 q 465 924 460 922 q 486 922 478 922 q 509 934 489 926 l 509 937 l 526 934 l 531 934 q 535 943 530 943 q 545 941 540 941 q 616 960 549 957 m 36 551 q 78 532 49 544 l 111 532 q 131 530 121 532 q 231 544 231 537 l 242 542 l 391 587 q 446 611 393 591 q 585 690 512 645 q 606 702 593 690 l 629 724 q 659 740 645 737 q 656 743 659 743 q 693 781 656 753 q 730 852 731 828 q 645 907 727 897 q 612 910 623 907 q 412 852 557 910 q 258 762 364 829 q 128 654 220 738 q 36 553 81 615 l 36 551 m 400 884 l 401 876 q 405 881 406 876 l 405 884 l 400 884 m 374 871 l 374 869 l 384 869 l 384 874 l 382 874 q 374 871 377 871 m 241 812 l 254 812 l 254 810 l 242 807 l 241 812 m 205 774 l 203 769 l 203 766 l 208 766 q 213 771 213 766 q 205 774 210 771 m 159 740 l 160 735 l 170 735 l 169 740 l 159 740 m 127 711 l 127 709 l 132 709 l 132 711 l 127 711 m 98 678 l 98 675 l 103 675 l 103 678 l 98 678 m -46 528 l -46 523 l -41 523 l -41 528 l -46 528 m -62 513 l -62 511 q -54 503 -62 507 l -53 515 l -53 517 l -58 517 q -62 513 -62 517 m -77 489 l -79 484 q -75 479 -79 479 l -72 479 l -73 484 q -77 489 -73 489 m 1091 570 l 1096 570 l 1095 556 l 1090 556 l 1090 559 l 1091 570 m -100 467 l -93 467 l -93 463 l -100 463 l -100 467 m 999 475 l 1004 473 q 1020 479 1014 479 l 1020 482 q 1013 487 1019 487 q 999 475 1000 482 m -136 387 l -136 379 l -134 379 q -129 384 -129 379 l -134 387 l -136 387 m -193 290 l -193 288 q -185 281 -193 285 q -181 286 -180 281 l -181 288 l -193 290 m 422 276 l 422 271 l 430 271 q 425 276 429 276 l 422 276 z "},"B":{"ha":1001,"x_min":-253,"x_max":939,"o":"m 643 949 l 653 946 l 675 949 q 687 944 687 949 q 701 949 701 946 q 777 937 756 944 l 782 939 q 913 883 876 922 q 939 810 939 848 q 842 669 925 744 q 735 602 800 635 q 609 543 704 582 l 607 538 q 857 405 751 501 q 903 315 880 387 l 901 310 q 908 279 908 286 q 852 164 908 239 q 684 70 808 118 l 595 53 l 583 58 q 495 45 555 45 l 486 50 q 466 47 483 50 l 444 50 q 425 47 431 47 q 403 53 416 53 q 395 50 400 53 q 345 64 351 58 q 330 62 342 64 q 286 77 294 73 l 283 77 l 277 72 l 274 72 q 262 79 262 72 l 245 79 q 225 96 245 96 l 225 99 l 211 99 q 196 104 204 99 q 186 101 192 101 q 140 121 183 107 q 106 130 140 128 q 60 155 99 147 q 51 162 60 157 l 45 162 q -35 38 -13 84 q -59 6 -39 38 q -93 -50 -77 -2 q -139 -108 -98 -50 q -197 -163 -144 -108 q -222 -185 -208 -163 l -243 -185 l -243 -180 q -219 -161 -243 -175 l -222 -149 q -197 -113 -206 -138 q -173 -100 -178 -105 l -175 -96 l -175 -93 q -153 -66 -153 -79 l -161 -66 l -161 -59 q -149 -45 -153 -59 q -139 -25 -143 -45 q -122 -5 -125 -5 q -119 -8 -122 -8 q -129 -20 -123 -20 q -127 -28 -127 -25 l -124 -28 q -107 -3 -107 -12 q -117 6 -110 6 l -117 9 q -73 77 -92 39 q -54 92 -54 81 l -56 101 q -22 138 -55 114 q -18 142 -22 142 l -20 147 l -20 152 q -10 155 -18 152 l -13 172 l -1 172 l -1 176 q -30 205 -7 205 q -66 233 -48 205 q -139 279 -88 239 l -141 279 q -144 276 -144 279 q -173 308 -149 276 q -197 332 -189 308 q -195 342 -195 336 l -207 342 q -219 354 -211 354 l -216 366 q -229 371 -224 371 l -229 378 q -219 383 -219 378 q -239 405 -229 383 q -231 414 -235 414 q -197 368 -220 392 q -163 339 -197 339 l -163 337 l -168 330 q -163 325 -168 325 l -156 325 q -153 327 -153 325 q -129 310 -138 327 q -59 262 -104 297 q 14 225 -12 234 l 16 225 q 24 230 18 225 l 26 230 l 26 220 q 36 218 31 218 q 41 250 39 220 l 31 242 l 31 247 q 45 262 31 254 q 51 256 47 256 l 53 262 l 48 264 q 45 262 48 262 q 43 267 45 267 l 70 313 q 87 327 77 327 l 85 332 q 97 351 87 351 q 104 349 102 349 q 111 363 111 358 q 104 368 104 366 q 116 397 104 373 l 126 395 q 133 397 131 397 l 133 402 l 128 410 l 128 414 q 157 446 144 414 l 165 446 l 165 453 l 155 453 q 150 444 150 453 l 148 444 q 111 460 148 456 q 109 463 111 463 l 111 475 l 111 477 l 106 477 l 106 480 l 111 488 l 111 490 l 106 490 q 102 482 102 490 l 94 482 q 189 546 94 515 q 214 568 203 568 l 208 574 l 233 592 l 233 594 l 231 594 l 218 592 l 233 621 q 264 696 249 637 q 325 825 275 704 q 320 827 320 825 q 34 684 191 783 q -102 577 -59 621 l -119 538 l -132 536 q -161 560 -155 536 q -105 638 -154 595 q -47 691 -57 672 q 43 745 8 730 q 99 781 47 758 l 104 781 l 121 779 l 123 783 q 119 789 123 789 l 114 786 l 114 789 q 208 835 174 831 q 237 844 208 842 q 342 888 237 856 q 425 912 399 912 l 441 912 q 469 924 441 919 l 480 922 q 643 949 514 936 m 544 883 l 538 886 q 403 854 452 869 q 271 570 310 631 l 271 563 q 306 570 306 564 l 323 568 l 340 568 q 349 570 345 568 q 357 568 354 568 l 376 572 q 458 563 376 568 q 469 565 464 563 l 483 563 l 505 563 q 770 679 668 618 q 879 806 860 751 l 881 820 l 879 825 q 881 832 881 829 q 799 886 881 858 l 793 886 q 791 883 791 886 q 699 898 777 893 q 680 895 682 895 q 658 898 667 898 q 544 883 644 893 m 359 482 q 349 485 355 485 q 271 468 349 473 l 271 465 l 267 468 l 264 468 q 211 453 211 459 q 68 196 149 350 q 233 128 149 154 q 303 111 240 122 q 383 96 306 108 q 398 99 396 99 q 432 89 425 94 l 441 94 l 486 89 q 724 140 675 109 q 821 213 792 169 q 857 298 840 225 q 830 361 841 341 q 793 402 820 368 q 770 417 779 417 q 743 441 751 427 q 641 482 727 441 q 580 499 621 482 q 573 497 577 499 q 488 507 522 507 q 359 482 372 482 m 111 376 l 111 371 l 119 371 q 121 378 119 373 l 116 380 q 111 376 111 380 m 99 366 l 104 366 l 104 361 l 99 361 l 99 366 m 60 281 l 60 271 l 65 271 l 65 281 l 60 281 m -73 67 q -68 62 -73 62 l -66 67 l -66 72 l -68 72 q -73 67 -73 71 m -173 -79 l -170 -79 l -170 -83 l -173 -83 l -173 -79 m -253 -191 l -245 -191 l -245 -197 l -253 -197 l -253 -191 z "},"C":{"ha":895,"x_min":-265,"x_max":926,"o":"m 715 1059 q 752 1021 746 1049 q 755 1019 755 1021 q 737 1002 757 1009 q 718 1005 726 1005 q 627 944 632 959 l 627 941 l 635 941 q 838 861 788 941 q 846 835 840 849 q 796 752 838 779 q 629 648 753 701 q 572 637 608 637 l 562 637 q 559 635 559 637 q 469 688 475 654 q 446 720 458 688 q 461 840 437 765 q 465 846 467 840 l 464 853 l 453 853 q 340 808 427 853 q 168 699 216 740 q -51 491 36 590 q -193 158 -216 269 q -91 49 -180 90 q 5 33 -61 38 q 168 62 99 33 l 181 59 q 314 126 180 64 q 347 147 320 126 q 391 166 359 147 q 458 206 403 179 q 724 420 547 266 l 724 417 q 731 412 726 412 q 749 441 730 419 q 755 433 754 441 l 758 433 q 778 444 773 433 l 777 447 q 765 452 766 447 q 793 471 764 456 l 802 465 q 811 490 800 481 l 825 487 l 830 487 q 855 522 842 489 q 889 537 880 527 l 895 537 q 905 522 899 537 q 867 492 892 517 l 867 490 l 871 484 l 845 465 q 808 441 848 450 l 806 447 l 795 447 l 798 439 l 803 439 l 804 433 q 787 410 793 433 q 754 391 751 402 l 751 391 l 745 393 q 724 370 741 370 q 591 248 646 291 q 431 129 535 205 q 353 81 402 117 l 270 43 q 146 -7 271 36 q 50 -26 71 -19 l 33 -23 l 22 -26 l 8 -20 q -12 -26 -1 -26 q -152 20 -112 -12 q -248 126 -239 79 q -248 136 -246 131 q -257 144 -252 136 l -260 169 l -265 182 q -245 267 -258 256 q -227 321 -248 293 q -206 339 -230 336 l -208 345 q -212 353 -212 350 q -163 440 -196 401 q -131 491 -150 443 q -96 528 -103 509 q -59 568 -77 545 l -47 566 q -40 582 -41 566 q -24 608 -24 582 q -2 629 1 614 l 5 635 l 7 635 l 7 622 q 20 627 21 622 l 17 640 q 30 643 26 640 l 26 648 l 25 654 l 77 699 l 83 699 l 83 694 l 94 694 l 92 701 l 85 701 l 84 704 q 121 731 83 708 q 144 752 134 739 q 195 787 184 787 l 205 787 q 230 811 203 798 l 247 808 q 271 835 256 835 l 287 832 l 295 832 l 294 838 l 281 835 l 280 840 q 305 848 279 846 q 323 861 304 855 q 335 859 329 859 q 357 878 333 868 l 372 875 q 434 907 369 888 q 469 920 444 920 l 475 918 q 532 936 487 927 q 715 1059 597 1016 m 500 731 l 501 723 q 545 691 507 696 l 566 691 q 694 741 608 691 q 764 792 740 762 q 794 827 795 823 l 791 843 q 693 890 784 877 l 651 890 q 545 872 543 884 q 504 774 500 800 q 500 731 494 755 m 76 691 l 77 686 l 83 686 l 81 691 l 76 691 m 40 659 l 41 651 l 44 651 q 56 662 56 656 l 55 664 l 50 664 q 40 659 44 659 m 918 564 l 926 564 q 921 551 926 551 l 918 551 l 913 553 q 918 564 914 564 m 902 553 l 905 548 q 899 540 906 544 l 895 545 l 895 551 q 902 553 897 551 m 827 505 l 831 505 l 833 500 l 827 500 l 827 505 m 819 463 q 831 454 823 463 q 839 457 836 457 l 838 460 q 827 465 837 465 q 833 473 825 473 l 832 479 q 819 463 816 479 m 791 457 l 791 454 l 794 454 q 798 460 800 454 l 798 463 l 795 463 q 791 457 790 462 m 720 388 l 721 382 l 724 382 q 728 388 729 382 l 720 388 z "},"D":{"ha":1063,"x_min":-193,"x_max":1013,"o":"m 707 949 q 725 941 709 949 q 732 946 732 943 q 854 918 777 946 l 921 882 l 960 844 l 994 797 l 991 792 l 991 787 q 1006 749 1006 755 q 942 551 1013 650 q 793 394 943 536 q 717 330 745 362 q 608 255 675 307 q 430 155 496 185 q 152 42 334 98 q 73 29 79 32 l 68 32 q 3 26 40 26 l 1 26 q -36 -35 -12 13 q -70 -68 -62 -47 q -80 -71 -75 -71 l -81 -66 q -61 -12 -60 -19 l -56 -15 l -50 -15 q -42 16 -46 -15 l -43 26 q -64 39 -43 31 q -77 34 -72 34 q -151 65 -82 34 q -167 78 -151 70 q -193 121 -191 103 l -187 121 q -153 96 -186 111 q -110 78 -152 85 q -102 70 -110 74 q -87 75 -95 70 l -74 73 q -59 78 -69 73 q -50 68 -54 68 l -45 68 q -15 81 -46 81 q 4 104 -10 104 l 3 111 q 1 114 3 114 q 15 129 1 117 l 15 132 q 12 134 15 134 q 29 155 12 138 l 26 168 q 54 206 44 206 l 53 222 l 66 222 l 65 229 l 58 229 l 57 237 l 71 235 l 73 235 l 73 239 l 67 248 q 79 260 72 260 l 79 265 q 75 275 78 271 q 90 291 76 286 q 92 301 92 296 q 89 309 89 307 l 106 309 q 111 314 112 309 q 106 319 106 314 l 106 322 l 111 322 l 110 335 l 113 340 q 107 345 107 340 q 127 358 106 351 l 126 363 l 113 363 l 113 368 q 151 427 145 393 l 153 427 l 153 430 q 150 440 153 435 q 157 448 149 448 l 154 453 q 189 517 171 517 l 191 522 q 182 530 187 522 l 182 532 q 197 541 196 532 l 197 545 l 189 545 l 216 617 q 232 643 234 620 l 230 643 q 242 653 229 653 q 239 663 241 659 q 274 751 241 686 q 290 779 291 770 l 280 779 q 159 705 248 753 l 49 623 q -51 525 -51 530 q -87 460 -56 519 q -93 458 -93 460 q -117 481 -117 466 q -83 551 -119 502 q -11 627 -41 612 q 176 764 105 744 l 186 764 q 213 782 185 782 q 243 808 213 790 q 260 818 242 812 l 270 815 l 294 838 l 310 838 q 321 869 309 844 q 346 920 330 920 q 381 895 379 918 l 381 887 l 380 874 l 385 871 q 391 887 392 880 l 404 887 q 422 895 414 895 l 427 895 q 433 887 427 887 q 467 907 431 907 q 475 910 467 910 q 483 907 480 907 q 535 933 482 918 l 541 930 l 553 930 q 655 946 571 946 l 663 946 q 691 943 673 946 q 707 949 699 949 m 107 262 l 107 258 q 113 255 113 258 q 96 229 109 243 q 99 222 99 224 q 89 219 95 219 l 90 212 q 92 209 90 209 q 31 83 45 124 l 31 78 q 206 114 90 78 q 209 111 206 111 q 259 134 209 116 q 279 142 260 142 l 294 142 q 344 170 294 149 q 382 186 345 176 q 493 248 393 195 q 585 307 496 254 q 678 371 627 332 q 718 401 684 371 q 936 646 889 546 q 957 718 943 648 q 960 720 960 718 q 954 728 956 728 l 956 733 q 813 882 949 840 q 702 897 799 892 l 694 897 q 425 846 564 897 q 363 815 413 837 q 345 774 347 798 q 288 646 338 774 q 243 541 259 592 q 219 484 236 539 q 172 381 203 460 l 149 330 q 122 273 121 286 q 107 262 111 273 m 397 882 l 397 877 l 403 877 l 402 882 l 397 882 m 245 805 l 245 802 l 253 802 l 253 805 l 245 805 m 222 610 l 222 604 l 227 604 l 227 610 l 222 610 m 212 589 l 213 584 l 218 584 l 217 594 q 212 589 212 593 m 347 165 l 347 160 l 353 160 l 352 165 l 347 165 m 86 68 l 86 62 l 96 62 l 96 68 l 86 68 m -40 24 l -40 21 l -35 21 l -35 24 l -40 24 z "},"E":{"ha":936,"x_min":-35,"x_max":969,"o":"m 610 959 q 631 951 623 951 q 635 957 631 957 q 697 908 673 945 l 697 900 l 694 885 q 697 875 697 880 q 659 828 693 852 q 502 726 593 764 q 381 682 489 710 l 338 669 l 333 672 q 297 667 326 672 q 199 700 249 667 l 197 700 q 25 448 25 538 l 25 425 q 109 366 25 381 l 138 366 q 140 369 140 366 l 145 366 l 153 366 q 397 444 237 366 q 520 533 461 478 q 546 543 541 543 l 556 543 q 589 520 574 543 q 461 433 580 496 q 345 338 370 353 q 281 256 345 330 q 225 115 225 182 l 225 100 q 345 9 250 9 q 487 56 388 12 l 589 117 l 656 166 q 677 182 665 166 l 682 182 l 682 172 l 687 172 q 692 184 692 172 l 684 184 l 684 186 l 702 197 q 736 220 713 220 l 736 218 q 764 245 764 222 q 769 251 764 251 l 772 251 l 772 245 l 774 245 q 815 287 798 260 q 846 302 846 292 l 846 304 l 859 302 l 864 302 q 874 328 870 302 q 897 340 894 338 l 892 349 l 892 351 q 900 356 900 351 l 897 361 q 905 366 899 361 q 907 359 907 361 q 905 351 905 354 q 920 343 920 347 q 880 300 916 330 q 746 179 801 215 q 512 18 567 38 q 371 -31 483 -6 q 356 -34 357 -34 q 330 -31 353 -34 l 312 -34 q 304 -31 307 -31 l 299 -34 q 202 22 246 -24 q 171 104 171 68 q 168 113 168 104 l 168 123 q 189 186 173 153 l 186 192 l 235 274 q 266 307 243 277 q 279 328 276 307 q 299 340 286 328 l 299 343 l 294 351 q 204 326 284 351 q 120 317 163 317 q 20 346 81 317 q -35 441 -35 376 l -35 448 q 1 538 -24 500 q 30 566 1 553 q 25 574 27 574 q 58 623 31 593 q 122 687 58 630 q 132 705 127 705 l 135 705 q 140 695 140 705 l 145 695 l 145 708 q 161 731 158 719 l 163 731 l 163 739 q 153 762 153 750 q 179 774 157 774 l 181 774 q 212 759 191 767 l 215 759 q 220 764 220 759 l 220 767 l 215 767 l 215 769 l 225 785 q 263 813 248 791 q 274 815 268 815 q 279 810 275 810 l 281 810 q 310 841 281 828 l 389 887 l 441 908 q 523 941 453 922 q 533 939 527 939 q 610 959 533 951 m 240 736 l 240 733 q 279 715 258 715 l 330 715 q 428 736 340 715 q 476 759 436 743 l 481 756 q 587 821 507 774 q 651 895 651 863 l 651 905 q 631 918 644 918 l 605 918 q 497 895 580 918 l 353 823 q 269 764 324 798 q 240 736 269 762 m 966 418 l 969 412 l 969 410 q 964 408 964 410 q 954 410 960 410 l 954 415 l 966 418 m 949 389 l 956 389 l 956 385 l 949 385 l 949 389 m 920 374 l 928 369 l 930 369 l 939 374 l 943 374 l 943 366 q 930 356 943 361 l 916 359 l 916 369 q 920 374 916 374 m 307 356 l 307 353 l 312 353 l 312 356 l 307 356 m 284 313 l 284 310 l 289 310 q 294 315 294 310 l 289 317 q 284 313 284 317 z "},"F":{"ha":1267,"x_min":-395,"x_max":1359,"o":"m 913 1091 q 945 1061 933 1091 q 902 882 909 925 l 904 880 q 1040 900 919 880 l 1092 902 q 1161 922 1156 922 l 1185 922 q 1232 932 1192 926 l 1245 930 q 1279 936 1279 932 q 1310 928 1305 932 q 1331 932 1318 932 l 1345 932 l 1359 924 q 1343 901 1359 915 l 1336 903 q 1042 844 1193 873 q 884 817 1001 831 q 844 701 859 768 q 814 628 832 701 q 798 585 810 628 q 777 536 791 585 q 728 404 748 477 q 705 347 725 404 q 680 278 680 292 l 680 275 q 691 269 683 275 q 695 277 695 271 q 705 271 705 271 q 772 285 714 277 l 780 285 q 785 283 785 285 q 986 309 848 296 q 1035 322 1015 322 q 1038 317 1036 317 l 1036 317 q 1098 333 1036 328 q 1105 330 1103 330 q 1124 338 1107 338 l 1131 338 q 1132 330 1131 330 l 1136 330 q 1200 355 1150 340 q 1211 351 1206 351 l 1211 344 q 1153 317 1202 330 l 1153 317 q 1121 307 1135 307 l 1114 307 q 1093 298 1114 298 q 1091 304 1093 304 l 1089 304 q 1044 285 1086 285 l 859 245 q 750 223 797 239 q 740 226 744 226 q 656 210 721 219 q 572 -43 592 33 q 549 -54 559 -43 l 544 -54 q 500 -9 500 -43 q 481 109 500 17 q 484 116 484 114 q 468 157 472 116 q 446 191 464 172 l 412 191 q 384 186 394 191 q 361 189 368 189 q 304 180 307 180 l 294 183 q 224 178 258 178 l 186 178 q 175 174 181 178 q 167 178 169 178 l 149 175 l 135 178 q 130 169 130 176 l 121 175 l 54 175 l 38 172 q -30 178 18 177 l -52 174 q -54 180 -52 180 l -92 180 l -108 178 q -159 191 -148 183 l -178 189 q -333 232 -227 189 q -395 300 -395 276 l -395 302 q -349 369 -392 336 q -303 398 -341 369 l -293 398 l -285 393 l -286 393 q -262 412 -277 412 l -246 410 q -227 428 -246 419 l -220 428 l -216 426 q -214 434 -214 429 l -197 430 q -184 433 -183 433 l -188 446 l -178 446 l -155 450 q -150 441 -155 444 q -149 456 -149 441 l -127 452 q -92 466 -96 466 l -79 463 l -73 467 q -64 463 -66 463 q -47 474 -52 474 q -29 460 -29 460 q 7 479 7 462 l 25 479 q 33 466 25 466 q 56 475 39 466 l 68 468 l 79 471 q 85 468 85 468 q 90 477 90 470 q 159 458 106 467 q 176 463 167 463 l 224 438 l 226 438 l 244 442 q 290 420 244 433 q 342 393 302 409 q 414 322 414 331 q 435 304 414 320 q 476 255 435 299 l 543 255 q 548 255 548 255 q 609 263 555 260 l 614 280 l 611 280 q 625 302 611 293 q 656 387 625 328 l 657 387 l 657 391 q 701 496 664 429 l 698 496 q 716 528 709 519 l 713 531 q 735 584 713 541 q 757 633 735 591 q 795 760 757 647 q 805 775 799 770 l 803 780 l 803 784 q 811 802 811 794 q 806 806 811 804 q 657 787 665 787 l 648 790 q 542 779 598 779 q 509 811 509 786 q 664 848 528 842 l 669 846 q 749 859 673 853 q 757 862 749 862 q 766 859 761 859 l 768 859 q 770 865 770 859 l 793 862 l 803 862 q 836 886 836 873 q 870 1020 870 999 q 895 1086 882 1086 q 913 1091 903 1086 m 783 682 q 782 680 783 680 q 781 675 783 675 l 781 680 q 783 682 781 682 m 700 460 l 701 460 l 701 458 l 701 458 q 700 460 700 458 m -328 312 l -328 312 q -220 255 -279 255 q -132 237 -220 246 q -133 239 -133 237 q 33 229 -49 231 l 46 231 l 59 229 q 92 231 87 231 l 110 229 l 115 231 q 125 229 119 231 q 220 233 204 233 l 229 231 q 326 239 276 239 q 337 243 331 239 l 343 239 l 420 247 l 420 248 q 282 380 371 327 q 92 437 205 418 q 81 434 83 434 l 64 437 q -140 410 -33 437 q -281 351 -157 410 l -328 312 m 505 197 l 505 182 q 519 159 505 175 q 527 142 519 151 l 527 133 q 524 127 527 127 q 538 113 524 129 q 537 104 538 104 q 543 90 543 94 l 543 90 l 554 98 l 552 102 q 570 158 552 121 q 587 206 570 163 l 587 208 q 585 210 587 210 q 505 197 548 208 z "},"G":{"ha":902,"x_min":-22,"x_max":879,"o":"m 725 965 l 743 965 l 743 949 l 725 949 l 725 965 m 741 966 l 764 963 l 782 966 q 780 960 782 958 l 786 964 q 840 918 817 953 l 838 913 l 846 903 q 809 803 846 848 q 718 696 790 762 q 597 606 643 621 q 517 568 594 598 q 389 543 436 543 l 380 545 q 359 543 368 543 q 249 600 284 543 l 249 613 q 275 631 249 622 l 289 631 l 315 600 q 367 588 330 593 q 548 631 476 588 q 673 714 573 631 q 695 724 675 717 l 695 738 q 720 747 720 746 l 720 748 l 717 755 l 768 808 q 808 895 808 869 q 764 928 798 928 l 741 928 q 553 874 673 928 q 424 788 473 828 q 345 719 419 781 q 220 564 231 595 q 98 359 176 526 q 37 163 56 284 q 35 135 35 154 l 42 135 l 35 121 q 81 47 35 71 q 120 41 91 43 q 323 153 168 41 q 343 172 328 153 q 420 238 418 232 q 467 280 440 254 q 533 326 515 326 q 543 350 543 340 l 548 348 q 591 380 548 353 q 591 376 598 376 l 591 389 q 619 412 619 408 q 648 434 621 421 q 649 454 649 439 l 665 454 l 665 450 l 665 450 q 663 448 663 450 q 666 446 663 446 l 654 439 l 654 453 q 666 464 655 464 l 663 465 l 663 452 l 663 452 q 617 435 658 452 q 470 393 583 417 q 444 414 456 393 q 526 455 444 435 q 525 452 530 452 q 642 491 525 462 l 745 553 l 745 553 q 806 589 745 553 q 849 611 829 611 l 853 611 q 879 594 870 611 l 879 583 q 804 514 808 528 q 749 290 768 469 q 747 290 747 290 l 750 281 q 660 -72 699 14 l 639 -116 q 444 -326 561 -277 q 340 -345 382 -345 q 315 -343 330 -345 q 297 -345 307 -345 q 265 -333 283 -336 l 242 -301 l 242 -290 l 259 -290 q 290 -304 269 -304 q 311 -313 305 -313 q 309 -315 309 -313 l 309 -315 l 303 -302 l 318 -302 q 333 -307 326 -302 q 352 -301 346 -304 q 359 -304 358 -304 q 490 -235 400 -304 q 578 -107 534 -185 q 656 104 629 -7 q 704 375 681 226 q 720 457 711 425 l 714 457 q 736 494 736 490 q 739 492 736 492 l 734 492 q 715 457 732 491 q 710 458 710 457 l 711 456 l 711 450 q 467 212 587 317 l 324 96 q 235 31 264 56 q 118 -12 151 -12 q -5 52 34 -12 q -22 111 -17 81 q -21 123 -22 123 l -22 140 l -22 156 q -16 186 -22 162 l -18 203 q -9 225 -10 224 l -9 226 q 2 264 -6 255 l 0 269 q 20 305 11 286 l 16 305 q 36 363 31 330 q 59 397 46 366 q 72 434 72 423 l 90 434 l 90 429 l 85 429 q 83 427 83 429 l 83 425 l 77 425 l 77 434 q 115 506 77 452 q 133 534 125 511 q 168 576 138 535 q 168 590 168 576 l 193 590 l 193 583 l 191 583 q 189 581 189 583 l 189 579 l 175 579 l 178 584 q 180 595 180 584 q 201 620 198 620 q 218 639 201 630 q 235 662 223 662 q 288 722 235 671 q 295 733 290 722 q 329 762 313 733 q 337 765 336 765 l 336 769 l 336 779 q 380 803 350 779 q 391 813 380 813 q 401 808 405 808 l 396 800 l 396 800 l 396 818 q 408 818 408 818 q 439 852 408 823 q 452 864 445 852 q 470 871 460 864 l 472 871 q 509 895 472 884 q 526 905 511 905 q 532 899 532 896 l 530 899 q 545 914 541 903 q 551 912 553 914 l 550 913 q 570 931 550 924 l 576 928 q 587 937 575 928 l 598 936 q 626 949 598 939 q 642 944 639 944 q 667 958 649 944 q 706 958 706 956 q 718 960 709 960 l 724 960 l 729 957 l 734 960 l 741 960 l 741 966 m 343 753 l 338 756 l 336 753 l 336 747 l 341 747 q 343 753 343 747 m 226 623 l 226 627 l 217 627 l 217 619 q 226 623 226 621 m 113 448 l 113 457 l 104 457 l 104 448 l 113 448 m 476 260 l 476 269 l 469 269 l 469 260 l 476 260 z "},"H":{"ha":1195,"x_min":-338,"x_max":1224,"o":"m 528 949 q 562 920 544 949 q 480 652 495 682 q 414 497 454 584 q 397 454 397 457 q 438 429 406 442 q 476 413 438 425 q 488 402 476 402 l 488 395 l 496 395 q 514 376 514 385 q 511 374 511 372 q 532 362 516 374 l 555 362 l 623 379 q 637 374 631 374 l 640 374 l 639 373 l 638 374 q 697 400 638 387 l 703 398 q 742 412 703 407 q 745 410 747 410 q 774 420 745 412 q 792 452 782 452 l 800 450 l 798 447 q 791 446 800 446 l 791 463 q 800 475 800 477 q 798 488 798 475 q 802 488 802 488 q 800 503 800 493 q 821 543 808 503 l 819 543 l 819 543 q 835 588 827 552 q 838 600 838 588 l 850 600 l 848 600 q 850 600 848 595 q 848 610 848 606 q 852 635 852 619 l 857 632 q 863 638 857 631 q 859 639 863 639 q 888 707 859 651 q 890 729 888 727 q 892 740 892 729 l 903 745 q 905 742 909 742 l 905 739 q 913 783 905 772 l 911 794 q 934 838 929 835 l 933 840 q 982 935 955 935 q 1008 907 1008 930 l 1008 902 q 960 777 979 813 l 963 759 q 932 682 949 739 q 838 437 855 489 q 838 438 838 438 q 887 452 870 450 q 939 471 919 460 q 960 469 960 469 l 990 481 l 997 480 q 1054 503 997 488 l 1072 503 q 1094 512 1080 512 q 1099 509 1099 509 q 1187 541 1166 539 q 1219 550 1192 550 q 1224 531 1219 542 q 1080 465 1221 506 q 951 425 1055 454 l 944 418 l 938 422 q 813 377 813 387 q 756 214 763 214 q 723 100 756 209 q 694 -33 711 70 q 659 -50 694 -45 l 654 -50 q 636 -23 636 -40 l 636 -12 l 643 54 q 641 64 641 58 l 641 86 q 631 127 641 92 q 633 133 633 132 q 596 228 614 196 q 557 285 573 273 q 541 306 557 294 l 538 306 l 419 280 q 315 256 315 264 q 250 108 290 208 q 191 12 202 12 q 178 20 178 12 q 174 24 178 24 q 185 61 186 61 l 185 61 l 185 70 l 195 70 l 195 72 q 204 91 195 83 l 204 85 l 208 85 q 195 83 203 83 l 195 91 q 206 103 195 102 l 206 100 l 197 113 q 211 130 211 122 q 209 144 209 130 l 218 144 l 218 139 l 213 147 q 222 176 217 157 l 232 172 l 228 172 l 228 166 l 220 166 l 220 175 q 235 209 231 193 q 242 212 243 212 l 242 234 q 254 244 248 234 l 254 243 l 249 255 q 258 254 258 255 l 258 252 l 260 252 l 56 223 l 52 223 l 41 225 q -79 214 34 221 q -85 216 -84 216 l -102 214 q -117 216 -104 214 q -122 214 -117 216 q -322 279 -241 214 q -338 319 -338 302 l -338 321 q -298 372 -338 342 l -289 372 l -289 364 l -290 364 q -285 381 -291 364 q -258 391 -273 391 l -257 391 q -214 415 -257 404 q -205 419 -214 419 q -189 416 -193 416 q -152 433 -175 429 q -123 445 -139 445 l -115 443 q -100 448 -107 448 l -96 448 q -67 461 -96 458 q -57 465 -67 465 l -51 460 q -31 469 -37 463 l -17 469 q 4 474 -17 474 l 8 472 q 24 476 18 476 l 37 474 q 58 486 45 474 l 67 486 q 65 479 67 479 l 71 481 l 80 479 q 104 486 80 481 l 117 484 l 125 484 q 157 495 157 488 q 204 485 168 495 q 215 490 204 485 l 226 490 q 256 479 243 490 l 255 479 q 277 486 264 486 q 279 479 277 480 l 294 481 l 304 474 l 302 474 l 309 479 l 317 479 q 338 469 323 471 q 352 498 344 469 q 368 502 368 504 l 361 511 q 382 533 361 520 l 382 547 q 387 566 382 549 l 387 577 q 401 606 395 580 l 412 627 q 410 642 410 630 q 423 666 421 642 q 435 690 430 666 l 439 690 l 439 703 l 450 718 q 444 720 450 720 l 492 869 l 489 869 q 509 939 503 907 q 528 949 519 939 m 469 722 l 469 728 l 460 728 l 460 722 l 469 722 m 41 446 l 37 449 q -216 368 -122 414 q -275 317 -275 332 q -123 264 -242 268 l -73 264 q -64 268 -69 264 q -57 264 -58 264 q 66 277 -47 264 q 71 274 71 274 q 235 301 201 293 q 239 298 239 298 q 283 308 284 309 l 281 311 l 284 320 l 281 325 q 300 353 291 353 l 301 353 l 301 349 q 299 357 301 353 q 323 391 299 391 l 323 385 q 313 395 313 385 q 332 434 313 402 l 332 437 q 300 448 332 439 l 300 443 l 279 454 l 264 454 q 227 459 231 454 l 225 458 l 155 458 q 129 460 144 458 q 41 446 113 456 m 382 419 q 338 315 378 416 l 338 317 q 418 335 407 326 l 425 331 l 432 331 q 505 350 505 350 l 505 345 q 382 419 442 401 m 652 337 l 645 338 q 602 326 636 332 q 589 319 602 326 q 583 323 583 323 q 578 321 578 321 l 578 318 q 611 272 611 277 q 642 227 626 271 q 656 206 642 211 q 671 141 674 141 q 691 172 687 172 q 688 180 691 168 q 720 274 688 191 q 734 299 720 285 l 734 300 l 727 312 l 734 312 q 736 314 736 310 q 747 331 736 318 q 745 345 745 334 q 756 372 750 345 q 760 371 760 372 l 760 369 l 753 370 q 682 345 696 356 q 652 337 665 337 m 586 282 q 579 288 585 288 l 579 282 l 586 282 m 742 277 l 742 283 l 736 283 l 736 277 l 742 277 m 711 169 l 713 174 l 708 176 l 706 172 l 711 169 z "},"I":{"ha":503,"x_min":-151,"x_max":781,"o":"m 701 985 q 724 972 724 985 l 731 972 l 731 982 l 741 982 q 746 977 746 981 l 746 975 q 704 953 734 953 l 687 953 q 477 916 684 947 l 467 916 q 438 896 438 905 q 286 423 357 603 q 229 295 239 295 l 231 290 q 194 192 216 235 q 155 96 174 131 q 142 64 149 96 l 145 64 q 275 79 255 79 q 307 88 275 81 q 317 86 312 86 q 332 91 326 91 l 354 91 l 372 93 q 379 86 372 90 l 391 86 l 401 93 l 408 88 l 418 88 l 423 91 l 423 86 q 389 71 423 83 l 384 73 q 229 32 384 61 q 170 17 173 20 q 71 -15 114 17 l 83 -15 q 86 -5 86 -7 l 83 -5 q 81 -7 81 -5 q 66 -3 73 -3 q -104 -45 -94 -45 q -151 -22 -138 -45 l -151 -15 q 56 44 -151 5 q 100 66 100 47 q 113 79 100 70 l 111 96 q 123 103 119 103 l 120 113 q 150 159 133 159 l 153 159 l 153 162 l 142 172 l 142 174 q 165 226 152 180 q 184 260 176 252 l 189 258 l 194 258 l 194 263 q 184 271 194 269 l 184 278 q 197 310 189 281 q 212 317 206 317 q 204 322 212 322 l 204 330 q 227 391 227 368 q 256 473 251 435 q 280 536 264 473 q 295 551 280 541 q 293 561 295 557 q 307 581 293 581 l 307 586 q 300 595 302 595 l 332 689 q 352 755 347 711 q 359 758 357 758 l 359 775 l 389 886 l 389 896 l 387 896 l 155 849 q 130 876 130 863 l 130 884 q 241 916 130 899 q 420 953 265 923 l 433 950 q 482 960 461 960 l 490 960 l 497 965 l 514 962 l 536 968 l 549 965 q 657 982 608 977 l 662 980 l 684 980 q 701 985 701 980 m 770 980 q 781 972 781 976 q 766 968 772 968 l 751 972 l 751 977 q 770 980 764 980 z "},"J":{"ha":618,"x_min":-298,"x_max":806,"o":"m 765 998 l 800 998 q 806 983 798 989 l 805 972 q 672 940 745 952 q 669 943 668 943 q 596 937 660 939 l 595 929 l 583 937 q 574 934 579 937 q 562 936 562 934 q 310 916 378 926 q 233 909 258 909 q 204 932 210 909 q 267 964 208 959 l 270 962 q 459 982 397 982 l 468 980 q 488 984 477 984 l 494 984 q 557 986 528 984 q 578 984 576 984 q 694 989 660 986 l 697 987 q 734 996 703 993 q 739 993 739 993 l 752 996 q 754 993 757 993 q 765 998 755 998 m 528 941 q 551 923 538 938 l 551 918 q 527 832 549 909 l 528 827 q 521 802 521 804 q 522 796 521 801 q 506 716 514 749 l 507 712 q 504 701 507 709 q 505 688 504 701 q 495 647 496 656 q 494 618 495 644 l 488 608 l 489 580 q 469 458 473 489 q 464 447 465 451 l 464 444 q 466 444 464 444 q 459 373 465 435 l 461 368 q 352 35 406 153 q 285 -89 309 -56 q 154 -248 252 -159 q 71 -304 130 -269 q 19 -325 48 -311 q -58 -341 9 -325 l -71 -343 q -79 -341 -75 -343 q -102 -345 -96 -343 q -266 -296 -216 -345 q -280 -275 -265 -292 q -295 -202 -298 -227 l -293 -184 q -288 -165 -290 -165 q -292 -163 -288 -163 q -277 -127 -281 -133 q -279 -121 -277 -125 q -244 -61 -256 -61 l -245 -68 q -250 -54 -252 -68 q -227 -15 -238 -38 q -179 44 -188 39 q -178 53 -179 44 l -151 82 q -127 117 -142 82 q -115 115 -118 117 q -104 117 -108 117 q -104 109 -105 109 q -121 107 -107 107 q -91 149 -119 131 q -71 166 -71 162 q -14 219 -38 210 q -1 237 -7 237 l 1 233 l 1 237 q 24 255 2 243 q 34 253 30 255 q 49 254 49 254 l 44 263 q 90 295 69 291 q 134 317 92 307 q 135 328 134 317 l 155 328 l 155 323 l 151 323 l 149 322 l 149 322 q 157 334 150 332 l 157 334 l 158 344 l 180 344 l 186 321 q 147 298 157 298 q 121 269 134 288 q 42 214 109 269 q -132 26 -104 77 q -242 -212 -227 -84 q -221 -266 -245 -232 q -116 -298 -182 -298 l -115 -292 l -102 -298 l -96 -298 q -86 -295 -92 -298 q -77 -298 -81 -298 q -68 -295 -74 -298 q -59 -298 -62 -298 q -30 -288 -56 -298 q -23 -291 -25 -291 q 87 -240 43 -271 q 184 -146 142 -199 q 230 -83 220 -101 q 267 -15 264 -38 q 309 67 278 -3 l 311 85 q 332 132 320 85 q 346 149 341 149 l 345 142 l 339 155 q 383 278 356 187 q 384 276 384 278 q 382 281 384 277 q 397 330 383 288 l 395 335 l 404 352 q 403 357 404 352 q 414 400 408 385 q 413 408 413 404 l 402 374 q 404 406 400 371 q 408 442 411 442 l 410 438 l 415 478 q 420 486 420 484 l 421 509 q 429 533 429 531 l 422 533 q 435 567 430 546 q 433 587 433 584 q 452 669 438 597 q 452 688 451 677 l 454 702 q 448 697 453 697 l 454 710 l 458 743 q 503 935 468 820 l 528 941 m 452 556 l 446 556 l 444 547 l 449 547 q 452 556 451 548 m 211 369 l 224 369 l 223 359 q 191 337 213 337 l 193 351 q 211 369 193 357 m 180 353 l 200 353 l 197 333 q 176 324 190 333 l 180 353 m 180 344 l 196 344 l 194 326 l 178 326 l 180 344 m 93 276 l 94 283 l 84 283 l 83 276 l 93 276 m 80 264 l 81 273 l 71 273 l 71 264 l 80 264 m 292 -29 l 293 -24 l 286 -24 l 286 -27 q 288 -29 286 -29 l 292 -29 z "},"K":{"ha":853,"x_min":-224,"x_max":853,"o":"m 427 1082 q 454 1053 454 1082 q 382 866 427 1004 q 368 841 378 866 q 319 715 357 806 l 209 443 q 163 322 185 397 q 220 349 166 323 l 253 363 q 252 355 254 355 q 256 374 253 355 q 296 397 286 382 q 318 418 318 397 q 340 421 326 418 q 340 415 342 415 q 338 412 338 415 q 336 425 336 417 q 383 465 383 454 l 399 465 q 431 495 402 484 q 463 526 437 495 l 503 564 l 511 560 l 512 560 q 510 558 510 560 l 510 559 l 507 568 q 589 650 557 610 l 597 650 q 595 647 602 647 l 595 639 l 585 639 q 618 675 606 675 q 652 713 618 689 q 716 804 659 730 q 810 968 764 880 l 826 972 l 836 972 q 853 946 853 962 q 774 802 813 848 q 715 716 774 787 q 682 676 710 716 l 572 564 q 311 347 397 395 q 206 290 248 307 q 146 262 182 275 q 139 258 139 258 l 139 258 q 168 237 139 258 l 290 177 q 500 118 412 129 l 507 118 l 523 121 l 538 114 q 663 128 557 120 q 663 125 669 125 q 705 139 663 129 q 705 133 706 133 l 703 133 q 756 155 704 140 l 756 155 l 755 155 l 767 145 l 765 145 l 775 163 q 819 170 795 163 l 825 154 q 753 119 780 119 q 691 90 715 104 q 589 72 682 90 q 575 71 575 77 q 559 67 568 67 q 498 72 545 67 l 494 68 q 475 70 475 73 l 479 72 l 472 72 q 269 131 397 72 l 267 133 l 264 132 l 256 132 l 116 202 l 113 202 q 101 168 109 201 q 71 90 86 145 q 68 93 66 90 l 71 93 l 1 -79 q -14 -105 -7 -102 l -12 -112 q -43 -202 -36 -158 q -66 -250 -60 -218 q -94 -303 -72 -250 q -99 -308 -102 -308 l -98 -317 q -113 -330 -98 -330 l -113 -326 q -110 -335 -113 -330 q -137 -390 -125 -378 l -155 -390 l -153 -372 l -155 -372 q -132 -311 -147 -327 l -132 -309 q -136 -313 -132 -313 q -102 -231 -125 -271 q -104 -219 -104 -228 q -69 -132 -88 -195 l -58 -132 l -59 -130 l -59 -141 q -64 -127 -59 -136 q -39 -60 -39 -68 q -4 -4 -15 -10 q -4 -6 -4 -4 q -12 -5 -4 -5 q 6 26 -12 26 l 6 20 q -4 31 -4 20 q 16 78 5 47 q 25 87 22 78 q 23 100 23 91 q 56 172 50 166 l 56 172 l 52 180 q 66 193 66 193 l 66 189 q 57 195 66 195 q 71 227 71 223 q 70 227 71 227 q -10 206 46 227 q -16 210 -16 210 l -85 195 q -100 197 -98 197 q -109 195 -104 197 q -214 238 -193 195 q -224 265 -224 241 q -219 264 -219 265 q -224 262 -219 262 q -201 342 -224 309 q -171 361 -193 342 q -127 378 -157 371 l -111 375 q -106 378 -111 375 q 66 301 -24 361 q 85 293 78 293 q 113 335 98 293 l 121 335 l 121 331 q 113 329 121 329 l 113 338 q 122 350 113 350 l 121 355 q 132 372 121 362 l 131 374 l 131 391 l 143 389 q 141 390 143 390 q 141 405 141 389 q 151 429 151 405 l 151 440 q 177 477 169 440 q 184 483 180 477 l 178 491 q 191 513 178 513 l 191 501 l 181 501 q 204 540 191 538 q 203 537 210 537 l 203 533 q 198 547 198 539 q 233 600 217 600 q 231 598 231 600 q 223 596 231 596 l 223 606 q 235 631 223 616 q 250 661 235 646 q 248 675 248 663 q 255 675 254 675 l 252 680 q 275 736 267 703 q 306 804 275 739 q 318 829 306 819 l 315 835 q 399 1063 393 1037 q 427 1082 411 1082 m 244 606 l 244 615 l 235 615 l 235 606 l 244 606 m 241 368 l 259 368 q 241 349 259 349 l 241 368 m -170 273 q -134 243 -170 258 q 21 271 -60 243 l 21 267 q -72 314 -55 314 q -102 324 -85 314 l -119 324 q -170 273 -162 324 z "},"L":{"ha":879,"x_min":-465,"x_max":936,"o":"m 850 966 q 921 922 902 951 q 936 876 931 905 q 849 781 922 829 q 678 711 791 741 q 627 700 631 705 q 609 702 621 700 l 541 692 q 532 695 536 695 l 528 695 q 480 625 518 695 q 446 563 468 616 q 428 528 438 563 q 387 446 414 508 q 340 355 356 397 q 319 316 332 353 q 275 241 298 293 q 265 230 265 231 l 261 230 q 506 189 416 205 l 515 191 l 540 186 l 555 189 q 607 184 605 186 q 774 204 682 184 q 783 201 779 201 l 781 201 q 804 216 792 216 l 813 216 q 811 205 813 205 l 809 205 q 831 216 809 216 l 846 216 q 795 178 826 189 q 711 151 762 162 l 698 151 l 698 146 q 682 149 686 146 q 610 137 625 143 q 576 139 589 139 l 573 139 q 555 137 564 139 q 477 146 504 140 l 468 144 l 407 155 l 407 153 l 300 173 l 247 182 l 241 180 q 232 182 236 182 l 230 182 q 210 151 227 182 q 191 124 203 147 q 109 40 186 123 q 29 -12 60 3 q -15 -43 28 -23 q -173 -99 -116 -99 q -229 -109 -174 -100 q -254 -104 -239 -104 l -256 -104 q -252 -109 -252 -104 l -265 -104 l -271 -104 q -422 -34 -342 -104 q -465 44 -449 -1 l -463 62 l -463 85 q -448 113 -448 119 l -454 113 q -420 160 -435 160 q -374 198 -420 176 q -250 252 -374 221 q -95 271 -202 264 l -83 269 l -69 271 q -21 269 -42 269 l -14 269 q 5 267 5 267 l 3 266 q 210 235 133 249 q 273 333 273 313 q 300 392 290 355 q 380 556 315 414 q 435 660 401 583 q 463 696 463 685 l 463 699 q 340 749 371 726 q 196 907 196 848 l 219 913 q 273 861 228 913 q 471 749 392 760 q 495 745 495 745 q 675 911 595 869 q 774 954 706 935 l 785 952 q 806 963 787 958 l 817 961 q 850 966 847 963 m 556 741 q 553 742 556 742 l 618 749 q 628 747 623 747 q 777 794 743 772 q 877 869 877 844 q 886 879 881 869 l 886 902 q 837 923 882 911 l 831 923 q 633 819 703 895 q 556 741 556 749 m -413 77 q -305 -52 -413 -15 l -250 -63 q -239 -61 -247 -61 q -232 -62 -237 -61 q -140 -45 -232 -62 q -98 -31 -140 -43 q 33 45 -13 10 q 152 153 88 87 l 164 153 l 164 148 l 157 148 l 157 144 q 151 142 157 142 l 151 153 q 182 193 174 178 l 182 191 q 42 208 111 202 q 47 209 42 209 q 41 207 45 209 q -43 218 -22 212 q -45 210 -45 218 q -69 218 -66 218 q -404 98 -354 218 l -413 77 m 850 227 q 861 212 861 226 q 823 202 848 202 q 850 227 833 227 z "},"M":{"ha":1570,"x_min":-4,"x_max":1571,"o":"m 1001 944 q 1044 921 1026 944 q 1058 905 1052 921 l 1065 905 l 1066 893 q 1074 877 1074 885 l 1075 870 l 1072 863 l 1073 847 q 1076 838 1074 842 q 1065 791 1072 810 l 1065 789 l 1069 773 q 1053 696 1058 707 l 1056 692 q 1022 495 1028 572 q 1015 479 1021 495 l 1017 475 q 1004 347 1008 475 q 1002 298 1006 315 l 1007 252 q 1044 164 1020 189 q 1137 134 1066 134 l 1146 134 q 1231 164 1162 134 q 1320 224 1290 201 q 1416 326 1404 319 q 1485 428 1464 384 q 1502 442 1495 442 l 1499 447 l 1499 449 q 1518 465 1504 449 l 1520 465 l 1520 467 q 1513 472 1513 467 l 1517 475 l 1520 475 q 1522 472 1522 475 q 1535 488 1526 472 l 1541 493 l 1555 493 l 1554 498 q 1542 505 1543 498 l 1541 507 l 1558 507 q 1567 493 1558 501 q 1554 449 1554 469 q 1533 405 1531 432 q 1510 363 1525 399 q 1463 294 1477 329 q 1386 213 1459 294 q 1352 180 1382 213 q 1318 153 1347 180 q 1224 97 1297 144 l 1138 79 l 1122 79 q 1032 113 1062 90 q 962 213 993 134 l 964 224 q 953 259 956 259 q 955 266 955 264 q 947 292 951 292 q 951 321 948 318 l 947 342 q 951 349 949 349 l 945 368 l 963 463 l 963 465 l 960 465 q 969 498 962 484 l 966 507 q 977 537 972 537 l 975 549 q 983 588 981 554 l 991 600 l 986 606 l 985 611 l 990 611 l 989 623 q 997 632 988 626 l 994 636 l 994 641 q 1006 657 1000 657 q 1013 660 1010 660 l 1013 664 l 1004 673 l 1004 675 q 1008 688 1004 688 l 1002 696 q 1017 734 1007 725 q 1013 754 1013 746 q 1021 766 1022 757 l 1017 778 l 1025 842 q 1017 875 1024 847 l 1018 884 q 998 900 1011 900 q 876 824 947 890 q 832 778 871 824 l 752 675 l 661 539 q 616 439 614 458 l 534 218 q 508 199 519 199 l 503 199 q 472 231 488 199 l 472 234 q 506 333 470 254 q 521 372 521 333 q 534 382 534 379 l 534 384 l 528 391 q 538 400 537 391 l 536 410 q 564 470 541 427 q 592 537 582 537 q 590 539 592 539 q 607 597 593 579 q 610 613 612 597 l 609 627 q 631 708 614 639 q 627 724 627 718 l 638 773 q 634 838 635 825 q 611 886 629 886 q 469 782 572 886 q 416 727 469 779 q 306 576 334 621 q 253 484 274 538 q 212 408 251 484 q 108 169 166 345 l 62 26 q 21 0 60 0 q -3 35 -2 23 q 54 206 -4 43 q 82 292 69 260 q 102 370 103 357 q 115 403 116 393 q 137 458 128 457 l 134 475 l 133 477 q 163 574 145 528 q 176 629 161 586 l 198 711 l 216 808 q 245 888 229 888 l 256 891 q 289 865 271 891 q 220 557 256 688 q 215 537 215 557 q 220 528 220 531 l 223 528 q 238 542 232 542 l 237 546 l 229 555 q 235 567 235 563 l 242 567 l 245 557 l 248 557 l 254 583 l 251 595 q 268 613 266 603 q 276 621 277 613 q 273 623 274 621 q 286 641 279 623 q 290 648 290 641 l 308 648 l 307 655 q 300 660 300 655 l 300 662 q 328 703 317 680 l 334 711 l 336 711 l 342 708 q 351 727 340 720 l 359 722 q 372 734 368 725 l 371 739 l 366 739 l 366 741 q 396 766 371 766 q 404 778 395 772 q 401 780 404 780 q 418 796 404 790 q 425 793 423 793 q 434 803 432 795 q 431 810 431 808 q 454 838 438 810 q 488 868 461 838 q 542 907 502 886 l 541 909 l 546 909 q 551 903 547 903 l 559 919 l 574 924 q 577 921 577 924 q 593 930 593 928 l 597 928 l 604 928 q 613 930 610 928 q 688 854 682 920 l 690 833 q 671 652 695 779 q 683 648 679 648 q 709 669 686 669 q 720 675 715 675 l 719 680 q 714 685 719 685 q 696 675 705 685 l 694 675 l 694 678 q 731 703 706 703 l 730 706 l 725 713 l 725 718 q 743 724 742 718 l 743 727 l 737 734 l 736 736 q 754 750 754 747 q 766 766 753 753 l 765 780 l 772 780 l 779 775 q 783 780 784 775 q 778 787 781 787 q 795 806 777 793 q 821 821 793 818 l 820 829 l 816 829 l 815 831 q 836 840 815 833 l 834 849 l 846 849 q 850 854 850 849 l 846 865 q 852 859 851 865 q 871 875 859 875 l 871 870 l 878 870 q 883 875 883 870 q 871 877 879 877 l 890 888 q 916 912 889 903 l 918 912 l 926 907 l 930 907 l 942 909 l 941 914 l 939 914 q 932 912 935 912 l 927 919 l 926 921 q 958 930 945 930 l 958 928 l 963 928 q 967 932 968 928 l 967 935 l 962 935 l 962 939 q 1001 944 986 944 m 1065 875 l 1065 873 q 1071 868 1067 868 l 1070 875 l 1065 875 m 770 750 q 775 745 771 745 q 779 750 780 745 l 779 754 l 774 754 q 770 750 770 753 m 321 678 l 321 675 l 324 675 q 332 683 333 680 l 332 690 q 321 678 326 688 m 665 627 q 669 623 665 623 l 669 627 l 665 627 m 260 600 l 260 590 l 268 590 l 267 600 l 260 600 m 1565 578 l 1569 578 l 1569 576 q 1564 562 1571 564 l 1564 567 l 1565 578 m 1551 530 l 1554 530 q 1558 526 1558 529 q 1554 521 1559 521 l 1552 526 l 1551 530 m 1562 516 l 1562 511 l 1558 511 q 1562 516 1558 516 m 1478 400 l 1478 398 l 1483 398 l 1483 400 l 1478 400 m 960 347 l 961 345 q 966 340 962 340 l 965 347 l 960 347 z "},"N":{"ha":1222,"x_min":-5,"x_max":1217,"o":"m 747 951 q 791 939 760 941 q 828 882 811 928 l 831 882 q 798 686 838 826 q 734 461 785 636 q 698 245 692 292 l 700 233 q 751 163 717 163 l 776 163 q 886 211 820 172 q 957 273 897 224 q 998 317 986 298 q 1078 389 1017 322 l 1082 391 q 1088 387 1084 387 l 1093 387 q 1108 401 1092 393 q 1112 409 1109 409 q 1109 416 1109 414 l 1101 416 l 1100 406 l 1093 406 q 1142 466 1106 437 q 1164 486 1147 486 q 1204 518 1181 518 q 1211 541 1204 541 q 1217 535 1216 539 q 1200 508 1213 520 l 1202 500 q 1204 498 1202 498 q 1144 391 1187 452 q 1092 319 1145 387 q 1017 250 1092 315 q 860 129 971 189 q 771 106 814 106 q 646 226 686 106 l 648 231 l 642 255 q 659 297 637 297 l 648 307 l 647 310 l 651 317 l 651 319 q 648 322 650 322 q 656 332 649 332 l 651 357 q 672 401 649 369 q 668 412 669 410 q 680 441 680 432 l 676 446 q 688 466 678 459 q 682 473 685 473 q 699 513 682 480 q 719 572 704 572 l 718 575 l 712 585 q 722 600 720 600 q 734 637 727 600 l 734 642 q 731 644 734 644 q 752 694 739 669 q 772 761 751 701 q 769 768 770 766 q 776 827 777 789 q 780 855 781 842 l 774 897 q 751 907 770 907 q 492 746 673 907 q 400 654 446 692 q 281 488 386 629 l 220 374 l 153 265 q 119 186 154 256 q 49 7 69 37 q 35 0 43 7 q 1 30 16 0 q -5 35 -4 30 l -5 37 q 44 168 35 168 q 81 262 65 262 q 90 292 78 286 q 92 307 87 307 l 93 304 q 100 307 98 307 l 100 310 l 96 322 q 100 330 100 322 q 96 337 96 334 q 120 382 115 382 l 115 394 q 127 401 127 396 l 123 416 l 122 419 q 132 421 123 419 l 129 426 l 128 431 q 146 444 126 443 l 146 446 q 139 461 145 453 q 158 500 138 466 q 168 535 157 515 q 184 562 165 555 l 184 568 l 179 585 q 197 619 195 585 q 212 659 203 619 l 211 662 q 208 664 211 664 q 222 728 220 673 q 224 823 219 819 q 235 830 229 823 l 238 830 q 275 795 255 830 q 258 662 271 695 q 245 610 252 653 q 193 444 227 562 l 193 441 q 199 436 195 436 l 201 436 l 216 454 q 210 469 216 460 q 214 476 215 469 l 218 476 l 220 469 l 224 469 q 238 498 235 498 q 260 535 252 498 q 273 553 264 535 q 299 560 300 555 l 285 572 l 284 577 q 315 605 304 577 q 330 627 326 605 q 345 642 332 627 l 347 642 l 355 637 l 358 637 l 357 649 l 353 654 q 373 674 374 666 l 369 686 l 374 689 q 379 684 375 684 q 383 689 384 684 l 377 696 q 397 711 387 706 q 404 721 397 721 q 414 719 408 719 q 433 741 413 741 l 433 746 q 429 753 429 751 l 436 758 q 439 755 436 755 l 437 751 l 437 748 l 450 748 q 456 776 455 748 l 461 773 l 471 773 q 490 778 473 773 l 489 785 q 481 791 481 785 l 481 793 q 503 812 497 793 q 517 820 517 817 l 522 818 l 527 818 l 526 823 l 522 835 q 530 838 527 838 l 534 835 q 576 872 547 838 q 608 895 610 879 q 654 922 628 901 q 703 944 660 922 q 747 951 736 951 m 1164 481 q 1170 476 1166 476 l 1173 476 l 1172 481 l 1164 481 m 1129 448 l 1130 446 l 1135 446 l 1134 448 l 1129 448 m 177 397 l 176 391 l 180 389 l 182 394 l 177 397 m 1075 374 l 1075 372 l 1082 372 l 1082 379 l 1079 379 q 1075 374 1074 378 m 663 345 q 659 332 663 340 l 667 332 q 671 337 671 332 l 670 345 l 663 345 z "},"O":{"ha":932,"x_min":-5,"x_max":947,"o":"m 604 960 q 620 955 618 955 q 628 958 620 955 q 707 938 689 949 q 768 901 732 926 q 802 869 773 892 q 861 696 861 785 l 859 683 l 861 667 q 832 506 861 609 l 824 490 l 824 486 q 828 490 824 490 q 808 431 808 434 l 808 429 q 805 429 808 429 q 889 459 875 459 l 889 454 l 889 454 l 891 456 l 886 465 l 898 473 l 905 473 l 911 469 l 913 469 l 913 480 l 925 480 l 923 481 l 923 473 l 918 481 l 931 489 q 947 483 939 483 l 947 471 q 925 452 929 461 q 884 432 903 439 l 880 432 l 873 437 l 875 437 l 875 442 l 882 433 l 882 425 l 791 379 q 745 296 777 368 q 713 245 743 296 q 484 28 579 77 q 313 -47 422 -20 q 273 -54 287 -54 l 241 -54 q 114 -18 183 -54 q 33 71 54 25 q 1 144 14 110 l 1 150 q 0 157 1 157 l -3 163 l -3 198 l -5 214 q -3 223 -3 218 l -5 229 l 0 259 l -3 259 l 1 271 l 1 279 q -2 275 1 275 q 58 434 29 392 q 167 591 58 456 q 275 686 188 614 l 275 707 q 338 840 297 785 q 355 857 348 840 q 532 953 437 934 q 604 960 576 960 m 345 723 l 345 726 q 515 770 452 770 q 595 715 590 752 l 595 707 q 581 692 595 699 q 534 716 551 692 q 500 724 526 720 q 351 671 426 708 q 335 646 335 663 l 335 634 q 418 452 335 554 q 608 380 494 380 q 715 396 631 380 l 712 396 q 747 412 712 403 q 781 506 773 474 q 795 548 787 506 q 797 545 797 548 l 797 552 q 793 549 797 549 q 808 623 803 589 l 808 651 l 813 672 q 791 790 802 790 q 600 916 737 916 l 600 909 l 589 916 q 512 897 564 907 q 395 813 422 852 q 345 723 348 760 m 54 198 q 79 101 64 134 q 195 7 117 33 q 207 -1 195 3 l 271 -1 q 490 87 352 -1 q 650 254 622 190 q 722 355 678 274 l 722 353 l 721 353 q 626 329 644 329 l 618 332 q 594 327 608 327 q 460 355 556 327 q 422 376 446 369 q 378 415 405 399 q 280 605 288 519 q 278 616 277 616 l 278 616 q 145 472 202 557 q 62 294 98 400 q 54 198 59 214 z "},"P":{"ha":932,"x_min":-178,"x_max":896,"o":"m 526 970 q 548 965 543 965 l 551 965 q 569 970 552 965 q 585 965 578 970 l 595 967 q 604 966 604 967 l 616 967 l 642 967 q 650 960 650 960 l 656 963 q 659 960 663 960 l 659 962 q 832 882 737 962 q 896 730 896 806 q 893 681 893 688 l 896 676 q 852 524 886 595 q 823 470 842 515 l 735 372 q 594 276 653 305 l 590 278 l 566 256 q 285 163 517 218 q 273 168 274 168 q 205 159 266 161 q 193 163 193 162 l 174 161 l 145 161 q 125 165 142 161 q 119 163 125 165 l 103 170 l 80 170 q 39 182 74 177 q 35 137 37 182 q 22 108 31 137 q 16 87 18 108 q -14 1 7 75 q -33 -43 -20 1 l -56 -87 q -54 -96 -54 -90 q -87 -145 -75 -145 q -109 -130 -98 -142 q -97 -106 -109 -123 l -100 -102 q -92 -87 -92 -89 l -95 -77 q -77 -44 -77 -47 q -79 -28 -79 -36 q -70 -23 -73 -28 l -70 -23 l -77 -12 q -56 24 -65 -12 l -58 39 q -45 44 -50 44 l -45 64 q -28 109 -35 74 q -22 111 -23 109 l -24 121 q -16 145 -18 142 q -17 154 -17 148 l 3 176 q -3 173 3 173 l 0 191 q -12 208 0 199 l -16 207 q -90 254 -39 208 l -90 255 q -89 254 -89 255 l -88 255 l -92 255 q -121 283 -106 262 l -121 289 q -111 300 -119 300 l -106 300 q 12 237 -9 237 l 22 254 l 22 258 q 18 255 22 255 q 31 289 28 288 l 31 288 l 62 389 q 77 448 66 389 q 118 564 89 465 q 160 701 128 587 q 184 765 165 703 q 186 762 186 765 l 186 769 q 183 766 186 766 q 185 779 183 779 l 183 798 l 183 798 l 188 798 q 45 697 123 764 q -93 556 -18 642 q -126 503 -104 556 q -132 500 -130 503 q -129 487 -129 490 q -151 467 -129 467 l -161 467 q -178 505 -178 483 q -113 605 -136 599 q -54 669 -108 629 q 66 779 -9 724 q 113 814 71 779 l 201 867 q 218 938 208 876 q 247 951 231 950 q 275 924 257 951 l 266 897 q 267 898 267 897 q 439 950 378 941 q 459 960 439 956 l 471 958 l 481 958 q 526 970 506 958 m 226 749 q 228 753 226 753 q 201 645 228 710 q 93 309 201 631 q 68 245 81 265 l 60 218 q 205 203 97 203 q 235 205 226 205 q 233 201 235 201 q 247 208 241 208 q 260 205 249 208 q 304 218 273 212 q 317 215 318 215 q 415 245 328 224 q 427 255 415 245 l 433 251 l 433 251 q 469 268 440 256 l 476 268 l 479 267 q 584 328 517 297 q 713 429 626 350 q 808 566 788 511 q 839 705 839 643 q 842 704 842 705 q 718 901 842 850 q 642 920 648 920 q 645 918 645 920 l 623 920 l 553 920 q 347 875 438 908 q 240 812 240 842 q 226 749 240 802 z "},"Q":{"ha":913,"x_min":-41,"x_max":814,"o":"m 565 952 q 681 917 651 943 q 755 840 727 886 q 782 792 755 833 l 784 773 l 784 771 q 796 755 787 771 l 794 743 q 811 682 802 728 l 811 669 q 808 635 811 655 q 814 629 810 629 l 804 532 q 796 515 796 523 l 796 491 q 779 463 796 472 l 779 467 q 784 455 784 460 q 743 342 784 440 l 687 233 q 659 205 672 205 l 659 211 l 664 203 l 664 195 q 565 79 608 122 q 538 58 541 58 l 538 56 q 604 2 552 22 q 623 -5 611 2 l 636 -3 l 640 -3 q 649 -13 649 -4 l 649 -18 q 610 -40 649 -31 q 512 1 565 -40 q 494 20 507 12 l 494 20 q 407 -28 491 20 q 236 -69 283 -69 q 106 -35 146 -59 q 0 88 24 20 q -36 276 -25 117 l -41 276 q -30 359 -35 300 l -22 363 q -25 374 -22 362 q -1 479 -25 428 q 9 518 5 479 q 26 560 13 518 q 66 628 35 583 q 134 722 72 657 q 271 856 134 746 q 318 886 278 856 l 368 904 l 399 904 q 424 899 413 899 q 454 917 424 903 q 508 943 473 943 q 519 949 508 942 q 551 945 547 945 l 565 952 m 463 863 q 471 831 471 840 q 406 712 471 755 l 403 712 q 373 728 381 712 l 373 737 q 395 759 373 753 q 424 820 420 793 l 424 833 l 424 833 q 321 558 321 732 l 321 547 q 324 536 321 543 q 321 530 321 531 q 375 381 328 458 q 520 311 436 311 q 536 313 533 313 l 552 311 l 572 315 q 574 302 572 307 q 512 273 574 284 l 484 273 q 378 321 401 291 q 330 363 362 321 q 302 414 326 363 q 289 434 296 415 l 289 442 q 279 472 286 442 l 283 481 q 270 524 272 500 q 267 532 267 524 l 267 579 l 271 585 q 267 600 267 591 l 267 604 q 279 617 267 616 l 279 614 l 272 624 q 281 661 272 661 l 279 677 q 286 700 285 700 l 286 699 l 286 706 q 304 747 295 713 q 313 768 309 747 l 330 789 l 330 805 q 353 826 342 805 q 373 852 368 829 l 376 857 l 376 857 l 379 857 q 258 785 322 848 q 156 678 245 785 q 29 370 35 500 q 20 276 22 326 q 172 -7 20 47 q 224 -18 220 -18 q 269 -12 231 -18 q 281 -15 273 -15 q 444 46 391 12 q 474 65 448 54 l 474 69 q 460 122 474 75 q 480 149 463 137 q 528 106 520 149 l 523 106 q 589 174 570 161 q 623 224 595 190 q 748 496 696 328 q 759 496 759 497 l 751 506 q 757 528 751 511 l 757 553 l 766 563 l 766 566 q 762 565 766 565 q 764 578 762 574 l 762 602 q 766 638 762 612 q 764 653 764 650 l 766 664 q 759 684 759 680 l 762 710 l 751 718 q 754 735 755 735 q 661 882 709 856 q 585 910 621 909 q 572 912 581 912 q 465 871 521 912 l 463 863 z "},"R":{"ha":873,"x_min":-264,"x_max":957,"o":"m 443 1031 q 474 991 474 1016 l 448 907 q 453 902 449 902 q 484 911 463 909 q 500 909 493 909 q 553 919 518 919 l 555 919 q 587 916 571 919 q 610 919 595 919 l 610 914 l 608 909 l 615 905 l 620 905 q 646 919 635 919 l 656 919 q 670 911 670 918 q 668 905 668 907 q 687 911 672 907 q 704 902 690 911 q 711 905 706 902 q 869 823 775 905 q 888 770 888 797 l 888 766 q 886 764 888 764 l 888 759 q 792 644 888 715 q 596 543 734 596 q 467 508 564 528 q 333 484 462 503 l 297 484 q 256 465 256 473 q 223 397 233 414 q 292 307 244 363 q 395 180 328 239 q 551 73 471 100 q 620 51 603 51 q 754 32 633 43 q 756 29 754 29 q 775 35 765 35 l 785 32 q 795 39 795 35 l 806 37 q 819 44 819 42 l 823 41 l 886 60 q 907 49 898 49 l 911 49 l 911 51 q 909 58 909 56 q 924 63 917 63 l 924 58 l 921 54 l 926 51 q 931 65 931 51 l 933 65 q 945 60 945 64 l 950 63 l 957 63 l 952 56 l 947 58 l 943 58 q 840 15 886 15 q 795 3 824 5 q 787 -4 795 0 q 764 -1 785 -4 l 737 -9 q 680 -6 694 -6 q 661 -9 663 -9 q 572 8 610 5 q 510 32 570 12 q 422 90 437 75 q 259 250 375 110 q 195 333 210 333 q 146 226 171 295 q 118 180 142 226 q 37 44 58 65 q 3 -6 23 15 q -25 -50 -3 -22 q -54 -73 -36 -73 l -54 -87 q -147 -159 -115 -159 l -150 -155 l -150 -152 q -123 -131 -143 -152 q -121 -140 -121 -135 q -109 -128 -119 -140 q -116 -126 -114 -126 l -116 -121 q -100 -104 -100 -107 l -100 -100 l -102 -95 q -87 -73 -87 -95 q -76 -66 -76 -73 l -76 -64 l -78 -59 q -61 -33 -68 -59 l -37 -18 q -47 -14 -37 -14 l -47 -9 q -33 5 -47 -7 l -33 8 q -35 10 -33 10 q -11 46 -27 24 l -11 49 l -9 49 l 3 41 q 5 44 3 44 q -6 58 5 47 q 15 90 -6 66 q 39 120 24 120 l 39 115 l 46 115 l 46 123 q 37 127 37 123 l 37 132 q 58 165 37 149 l 56 170 l 56 173 q 121 283 103 265 l 115 290 l 115 292 q 121 300 121 298 q 115 311 121 311 q 154 359 140 359 l 151 374 q 159 395 159 389 q 51 469 105 469 q 35 498 42 474 q 41 508 38 508 l 39 513 l 39 515 q 58 522 58 515 q 118 508 71 516 q 121 505 118 505 l 123 505 q 140 513 132 513 l 151 513 q 190 510 165 513 q 228 541 205 510 l 231 541 l 231 548 q 242 570 231 554 q 240 577 242 572 q 292 694 264 659 q 307 749 292 705 l 317 742 l 319 742 l 319 759 q 336 792 336 791 q 333 800 333 797 q 355 821 349 821 q 350 835 353 835 q 111 754 309 835 l -66 665 q -142 618 -66 662 q -166 601 -142 612 q -219 517 -219 557 q -233 510 -233 511 q -264 527 -256 515 l -262 532 l -262 558 q -210 615 -220 615 q -186 639 -207 615 q -111 692 -168 644 l -106 689 l -102 689 q 41 770 -24 749 l 51 770 q 101 797 58 785 q 187 835 148 823 q 292 866 216 850 q 309 869 292 869 l 314 869 q 319 876 314 876 l 336 873 q 372 892 340 883 q 395 941 388 912 q 400 945 400 941 q 397 955 400 951 l 412 1015 q 443 1031 426 1029 m 283 534 l 283 532 q 290 527 283 527 q 295 529 295 527 l 312 527 q 362 534 336 527 q 367 529 363 529 q 391 536 374 529 l 403 534 q 410 541 403 541 q 417 538 414 538 q 419 548 419 543 l 446 548 q 455 555 455 553 q 472 551 465 551 q 515 570 472 557 l 519 568 l 527 568 q 582 589 536 577 l 627 610 l 642 608 q 661 623 648 618 l 665 620 l 673 620 q 713 646 673 636 q 770 682 724 660 q 816 732 770 692 q 831 785 831 766 q 706 861 831 825 q 591 871 657 871 q 584 869 589 871 l 579 871 q 419 842 419 865 q 283 534 405 803 m 176 465 l 176 457 q 182 450 176 454 q 190 465 190 452 l 176 465 m -56 -37 l -61 -45 l -61 -50 l -52 -50 q -47 -45 -47 -50 l -47 -37 l -56 -37 z "},"S":{"ha":838,"x_min":-433,"x_max":885,"o":"m 524 956 l 532 953 q 551 956 545 956 l 553 956 q 636 903 613 937 q 652 855 652 857 l 652 846 q 643 812 647 816 q 648 801 643 812 q 623 712 648 785 q 600 669 610 682 q 536 558 572 610 l 498 501 q 471 465 495 490 q 458 444 471 459 q 515 361 458 430 l 515 361 q 624 417 520 376 l 633 417 q 686 446 644 432 q 762 495 686 446 q 795 513 786 513 q 794 511 799 511 q 836 532 794 523 q 861 543 842 538 q 885 549 861 549 q 813 486 857 511 q 734 433 786 471 q 689 404 699 414 q 567 338 683 404 q 544 323 563 338 q 536 323 536 322 q 570 243 560 276 q 598 157 598 187 q 609 119 601 155 l 607 114 l 607 90 q 559 -17 607 45 q 476 -48 513 -48 l 452 -48 q 390 -33 436 -48 l 389 -33 q 392 -37 392 -33 q 344 -12 361 -28 q 288 44 317 -12 q 281 73 281 52 l 281 77 q 286 99 281 94 l 285 101 q 300 144 285 123 q 344 219 300 167 q 422 289 392 289 q 471 336 471 325 q 446 378 446 378 q 420 406 441 378 l 423 406 q 394 366 394 370 q 375 351 382 366 q 357 330 369 351 q 328 293 353 330 q 264 238 308 272 q 250 224 264 232 q 223 205 245 216 q 145 141 191 168 q 104 111 138 128 q 50 72 92 98 q -12 34 6 40 q -184 -39 -94 -14 q -260 -54 -227 -54 l -266 -54 q -290 -52 -275 -54 q -286 -54 -286 -52 q -400 -3 -344 -54 q -425 24 -418 24 l -425 40 l -424 41 q -433 81 -433 52 q -431 94 -433 83 l -433 102 q -403 191 -429 131 q -375 239 -387 205 q -277 336 -296 336 q -205 393 -241 376 q -102 430 -136 430 q -14 395 -18 425 q -37 363 -20 363 q -76 385 -46 385 l -91 385 l -118 382 q -115 387 -118 387 q -197 347 -164 366 q -337 207 -287 277 q -366 149 -337 197 q -380 100 -380 117 q -328 5 -380 22 q -278 -7 -313 -3 q -148 20 -220 -7 q -66 55 -120 28 q -30 77 -59 56 q 16 104 4 90 l 91 152 q 141 193 91 156 q 182 226 145 193 l 231 272 q 351 387 250 272 q 394 436 354 387 q 400 437 400 436 q 381 472 400 441 q 360 503 381 475 q 311 600 335 548 l 311 605 q 313 608 313 608 q 298 648 302 614 q 288 662 294 662 l 294 673 q 288 686 293 686 l 294 724 l 292 728 q 298 754 294 748 l 296 765 q 295 775 296 776 q 300 785 300 775 l 300 789 q 322 834 305 793 q 353 867 341 867 q 394 907 353 882 l 450 940 q 456 935 458 935 l 456 941 l 467 935 q 477 947 471 935 q 524 956 486 947 m 342 716 l 342 685 l 345 671 q 342 666 342 666 q 418 497 358 600 q 429 481 430 481 l 454 505 l 456 505 l 456 500 l 447 500 q 475 538 463 526 q 515 592 499 585 l 524 592 q 523 585 524 585 l 519 585 q 526 594 519 594 l 526 589 l 524 589 l 517 585 l 509 585 l 509 596 q 539 639 534 639 q 553 659 545 641 l 551 672 q 562 679 562 679 l 562 696 l 572 698 l 572 711 q 591 758 584 745 q 590 767 590 760 q 598 781 595 780 q 595 772 598 772 q 602 816 600 798 q 600 823 600 819 q 605 844 605 840 q 568 907 593 907 q 543 916 566 913 q 384 837 467 916 q 342 716 342 785 m 545 613 l 545 619 l 536 619 l 536 613 l 545 613 m 463 484 l 467 489 l 460 491 l 458 486 l 463 484 m 328 336 l 328 342 l 321 342 l 321 336 l 328 336 m 300 315 q 302 316 302 315 l 311 320 q 304 315 311 315 l 304 315 l 304 310 l 308 310 q 300 315 300 309 m 336 71 q 409 5 336 28 q 452 -1 431 -1 l 473 -1 q 535 37 500 -1 q 547 85 547 79 q 549 102 549 86 l 549 110 l 544 121 q 553 122 552 121 l 542 176 l 544 179 q 537 199 539 186 q 525 229 534 200 q 519 247 520 229 l 521 249 l 492 293 l 492 285 q 345 117 363 182 q 336 71 339 104 m 123 144 l 123 151 l 124 151 q 123 144 123 151 l 123 144 z "},"T":{"ha":473,"x_min":-306,"x_max":905,"o":"m 464 968 q 517 958 477 968 l 523 958 q 543 966 529 958 l 553 960 q 575 963 565 963 q 584 960 588 960 l 584 966 q 611 956 607 956 l 623 956 q 648 962 625 956 q 648 956 648 956 l 672 956 q 690 951 690 955 l 702 953 l 704 953 q 724 949 718 953 q 733 951 724 951 l 739 951 q 768 943 743 946 l 774 947 l 833 929 q 846 931 837 931 q 878 918 846 927 q 905 904 897 904 l 905 886 l 894 886 q 755 916 755 905 l 760 916 q 735 908 749 908 q 744 911 735 911 l 744 905 l 732 911 l 721 911 q 696 913 709 911 q 676 911 688 911 q 626 918 654 916 q 629 915 629 918 l 610 918 l 604 918 q 592 916 597 918 l 576 918 l 547 918 q 540 916 540 918 l 542 918 l 425 918 q 151 882 310 915 q 75 727 140 807 q -191 593 -58 593 l -205 593 q -298 644 -266 593 q -306 689 -306 662 q -260 759 -302 719 q -220 789 -242 779 l -199 805 l -191 802 l -193 802 q -125 840 -193 821 l -125 832 q -127 844 -127 832 q -37 878 -60 878 l -35 876 q 13 890 -19 890 l 13 887 l 7 887 l 7 883 l 3 894 q 60 914 24 897 q 72 912 68 914 l 113 929 l 118 926 l 182 941 q 191 939 186 939 l 193 939 q 285 956 276 956 l 289 953 l 301 956 q 322 953 318 953 l 322 960 l 334 953 l 336 953 q 342 962 342 956 q 369 956 369 956 q 381 964 369 957 q 386 960 387 960 l 386 963 q 399 961 399 963 l 423 963 l 431 963 q 438 964 438 963 q 440 963 436 963 q 456 958 446 963 q 464 968 464 960 m 376 905 q 411 854 411 895 q 296 439 382 705 q 242 274 287 422 q 218 198 232 269 q 194 136 194 148 q 147 26 159 26 q 150 16 147 30 q 117 -52 130 -43 q 118 -49 118 -52 l 121 -72 q 108 -104 113 -72 l 90 -104 l 90 -87 q 83 -87 90 -87 l 83 -79 q 98 -50 83 -67 l 98 -52 q 87 -44 87 -52 q 102 -1 102 -5 q 97 -3 102 -3 l 123 68 l 122 71 q 134 104 122 77 q 132 117 132 108 q 145 142 138 117 q 146 138 146 142 q 144 154 144 142 q 151 158 149 154 l 148 163 q 168 218 159 182 l 175 218 l 173 219 q 171 218 173 218 q 171 227 171 218 l 171 231 q 178 248 176 237 q 176 259 176 252 q 191 286 185 286 q 241 452 191 292 q 252 468 241 458 q 251 474 252 474 l 249 481 q 275 545 267 544 q 278 543 278 545 l 273 551 q 290 606 276 578 q 288 622 288 618 q 302 659 298 635 l 300 665 q 317 711 311 681 q 314 720 317 715 q 351 889 351 825 l 376 905 m -251 674 l -251 671 q -195 635 -251 642 l -191 635 l -174 638 q -165 635 -170 635 q -138 645 -150 645 l -134 644 q -90 664 -108 652 q 40 765 -28 691 q 95 869 95 844 q 90 871 90 869 q -39 831 84 871 q -251 674 -251 736 m 245 375 l 245 381 l 239 381 l 239 375 l 245 375 m 201 254 l 202 254 q 200 254 200 254 l 200 251 l 201 251 q 201 254 201 251 z "},"U":{"ha":1021,"x_min":-53,"x_max":1257,"o":"m 289 954 l 294 951 l 308 951 q 319 930 308 945 q 205 672 319 918 q 61 309 115 481 q 28 184 48 239 q 7 43 7 102 l 7 7 q 56 -66 7 -66 l 66 -66 q 132 -41 104 -66 q 189 -3 146 -41 q 237 32 230 32 q 300 100 237 45 q 340 146 300 105 q 503 368 465 294 l 500 374 q 519 393 519 388 l 519 401 q 549 433 549 427 q 582 482 568 452 q 642 569 635 569 q 650 583 648 569 q 666 610 656 583 q 682 626 671 610 l 680 631 q 718 696 690 642 q 747 740 730 703 q 788 805 769 781 l 785 810 q 859 927 836 908 q 875 932 861 927 q 907 900 907 924 q 864 838 907 892 q 837 794 864 831 q 764 626 785 694 q 731 471 742 574 l 731 441 l 728 425 q 779 87 726 139 q 880 36 832 36 q 905 31 880 33 q 1010 58 942 31 q 1043 77 1017 58 q 1103 112 1095 102 q 1124 125 1124 123 q 1154 144 1125 128 l 1152 158 q 1176 177 1163 161 l 1190 174 l 1195 177 q 1206 174 1200 174 q 1208 185 1208 184 q 1200 188 1203 188 q 1222 218 1208 218 l 1219 223 l 1219 226 l 1225 226 l 1225 212 l 1214 201 l 1214 196 l 1227 193 l 1230 193 q 1236 201 1230 201 l 1238 201 q 1200 155 1217 164 q 1187 144 1198 144 q 1184 147 1187 147 l 1176 136 l 1179 123 q 1070 39 1112 57 q 1027 17 1063 29 q 921 -18 1027 5 q 850 -14 918 -21 q 731 63 786 1 q 672 350 675 125 q 669 414 673 414 q 674 431 674 423 l 671 436 q 677 458 677 446 q 674 460 677 460 q 680 482 680 475 l 677 493 q 682 501 680 501 l 680 507 l 680 512 q 682 536 680 522 q 680 545 680 542 l 677 545 q 623 477 627 477 l 620 477 l 620 474 l 623 460 q 585 401 595 438 l 563 376 q 560 374 563 374 l 563 368 q 536 344 563 363 q 506 290 536 321 q 471 241 506 280 q 435 197 471 234 q 392 135 435 184 q 332 67 392 126 q 132 -101 194 -81 q 64 -120 120 -115 q -31 -66 8 -120 q -50 -14 -43 -41 q -47 -6 -47 -9 q -53 10 -53 3 l -53 40 q -39 45 -53 45 l -39 51 q -47 59 -39 55 q -28 149 -47 135 l -28 159 l -34 168 l -7 265 l 12 322 l 9 338 q 37 398 18 345 q 50 452 46 398 q 77 512 56 456 l 75 512 q 96 547 75 516 q 94 555 94 553 q 129 637 125 592 q 142 645 136 645 l 140 659 q 156 686 148 659 l 161 688 l 159 694 q 197 762 186 761 q 216 791 203 791 l 216 794 l 210 802 q 256 900 256 893 q 289 954 275 954 m 712 664 l 718 664 l 718 669 q 712 664 712 669 m 1255 269 l 1257 264 l 1257 261 q 1241 253 1250 261 l 1241 267 l 1255 269 m 1246 229 l 1252 229 l 1252 226 l 1246 226 l 1246 229 m 1162 158 l 1162 150 l 1165 150 q 1192 161 1192 157 l 1192 163 l 1176 163 q 1162 158 1169 158 m 438 241 l 438 233 l 441 233 l 441 241 l 438 241 z "},"V":{"ha":789,"x_min":-6,"x_max":809,"o":"m 799 1020 l 809 1004 l 809 994 q 799 994 800 994 q 799 977 799 993 q 787 968 787 977 l 767 968 q 799 1020 782 1020 m 60 991 l 62 991 q 95 968 78 991 l 95 920 q 73 705 95 907 q 75 699 73 704 l 68 583 l 76 583 q 63 484 63 566 l 63 476 q 59 454 63 454 q 66 446 60 446 q 61 433 61 434 q 56 370 61 404 q 58 343 58 353 q 56 332 58 336 l 61 282 q 58 271 58 278 q 65 274 58 274 l 58 262 q 87 60 75 60 q 137 -25 87 16 q 164 -27 152 -27 q 331 120 224 -27 q 427 271 386 201 q 462 332 455 329 q 465 330 465 332 q 463 340 463 335 l 494 402 q 509 413 507 402 q 506 425 506 413 q 521 469 521 441 q 535 490 530 469 q 559 525 551 525 l 557 525 l 557 532 q 566 544 557 543 q 563 536 566 536 q 591 594 572 576 q 637 694 591 624 l 637 672 l 629 672 q 629 669 629 671 q 629 682 629 669 q 636 685 635 682 l 636 683 l 627 683 l 627 693 l 637 706 q 636 715 636 709 q 661 752 659 735 q 665 751 665 752 q 663 766 665 752 q 677 785 666 785 l 675 786 q 692 814 675 789 q 714 834 692 830 l 723 832 l 723 832 l 723 828 q 711 838 711 828 q 713 846 711 846 l 711 852 l 711 861 l 730 870 l 738 869 l 738 863 q 733 873 733 869 q 735 876 735 878 q 716 876 735 876 q 736 918 733 890 q 753 925 742 918 l 753 916 l 750 916 l 750 912 l 743 912 l 743 932 q 748 932 749 932 l 747 934 q 770 949 751 949 l 770 933 l 770 932 q 780 921 778 929 l 780 912 q 766 903 769 912 q 768 896 768 900 q 757 862 766 862 l 758 856 q 744 831 758 848 q 728 806 744 815 l 729 791 q 705 728 720 777 q 690 725 690 720 q 693 712 693 725 q 684 705 688 712 l 686 701 l 680 684 q 681 672 681 681 q 656 621 669 660 l 645 604 l 645 589 q 606 524 631 589 q 593 493 606 517 q 575 441 575 454 l 510 311 q 466 225 501 311 q 370 75 401 120 q 328 24 366 75 q 307 -2 321 24 q 257 -43 300 -2 q 159 -79 189 -79 l 152 -79 q 94 -53 122 -76 q 60 -22 68 -53 q 41 14 41 -7 q 43 17 43 18 q 33 40 35 17 q 14 121 22 53 q 19 129 19 129 l 7 146 q 9 156 7 152 q 7 189 7 176 l 7 199 q 1 198 7 198 q 2 229 5 229 q 2 237 2 229 l 2 269 q -3 288 2 271 l -3 307 q 2 312 2 313 q -6 371 -1 359 q -1 376 -1 379 l -5 376 l -1 388 l -1 404 l 2 418 l -3 428 q 4 454 2 438 q 2 486 2 471 l 2 496 q 7 505 2 503 l 7 507 l 9 517 l -2 534 q 9 537 7 534 l 7 549 q 12 572 12 567 q 9 584 9 581 q 14 598 14 593 l 8 602 l 13 635 l 8 637 q 15 675 14 675 l 12 680 l 12 694 l 20 710 q 16 726 16 717 q 26 856 26 798 q 35 875 31 856 q 28 899 33 892 q 33 937 33 924 l 33 939 q 31 966 33 949 q 60 991 42 991 m 773 945 l 778 945 q 787 935 787 943 l 787 927 l 774 927 q 764 941 764 927 l 773 945 m 729 846 l 729 848 l 729 848 l 730 850 l 731 850 q 729 846 731 850 m 710 810 q 707 805 712 805 l 708 808 l 709 808 q 710 810 710 808 m 690 760 q 688 764 688 762 l 682 764 l 682 760 l 690 760 m 656 693 q 657 694 657 692 l 654 694 q 653 693 653 694 q 655 692 653 692 l 656 693 m 592 547 l 593 547 l 591 547 l 591 543 l 592 543 q 592 547 592 543 m 546 455 l 543 455 l 543 449 l 546 449 q 546 455 546 449 m 519 391 l 519 397 l 511 397 l 511 391 l 519 391 z "},"W":{"ha":1334,"x_min":-5,"x_max":1286,"o":"m 1206 968 l 1223 968 l 1243 944 q 1261 916 1243 930 l 1261 910 l 1259 904 q 1269 880 1261 904 l 1267 871 q 1274 871 1267 871 l 1274 856 l 1274 855 q 1286 796 1275 855 q 1274 765 1283 765 q 1256 783 1266 765 q 1265 789 1267 789 l 1265 785 q 1255 812 1255 785 q 1258 804 1258 812 l 1261 804 l 1261 802 l 1264 780 l 1237 770 l 1237 781 q 1242 794 1237 787 l 1240 804 l 1242 814 q 1235 855 1237 842 l 1240 867 q 1232 878 1232 871 l 1232 886 q 1240 883 1240 886 q 1223 901 1240 901 l 1219 929 l 1227 929 l 1227 926 l 1230 926 q 1230 918 1230 926 q 1206 959 1217 918 l 1206 968 m 534 964 q 624 865 624 942 q 588 758 612 795 q 485 628 549 689 q 325 503 389 526 q 239 476 283 476 q 168 534 168 493 q 198 553 180 553 q 243 536 236 536 q 337 568 281 537 q 474 692 427 635 q 498 720 498 713 q 531 765 510 729 q 539 768 539 767 l 533 768 q 557 806 543 787 q 574 850 563 850 l 572 863 q 578 885 578 880 q 537 913 567 913 l 527 913 q 283 759 439 913 q 82 378 147 613 q 54 213 69 343 l 56 203 q 52 176 54 182 q 74 62 58 88 q 156 -1 101 -1 l 163 -1 q 420 152 253 -1 q 431 172 423 152 q 458 196 448 175 q 530 270 469 203 q 585 338 543 290 q 601 351 585 351 l 601 354 l 604 372 l 621 372 q 621 372 621 372 q 613 371 621 371 l 613 380 q 639 413 631 413 q 635 418 639 412 q 667 456 661 456 l 665 468 l 665 472 l 688 544 l 716 566 q 760 538 760 566 q 713 435 760 524 q 689 366 704 425 q 680 315 684 366 q 665 245 671 315 q 657 244 657 242 l 660 229 q 657 218 660 227 q 660 197 660 205 q 657 183 657 184 q 701 81 673 108 q 760 58 709 58 l 767 58 q 863 98 801 58 q 883 117 867 98 q 1038 281 968 187 q 1060 317 1041 283 l 1069 322 l 1078 315 l 1076 315 l 1076 313 q 1069 327 1069 313 q 1107 372 1095 372 l 1107 372 l 1107 369 l 1102 369 l 1102 380 q 1131 408 1115 408 l 1131 403 l 1133 403 q 1133 402 1133 403 l 1133 402 l 1124 402 q 1181 532 1135 458 q 1193 547 1181 539 q 1183 550 1192 550 q 1202 576 1194 576 l 1209 576 l 1215 572 l 1221 586 q 1200 596 1215 596 q 1215 617 1204 617 l 1215 630 q 1225 657 1222 630 q 1235 661 1235 661 l 1235 671 q 1230 686 1230 677 q 1232 693 1232 686 l 1244 686 l 1242 686 l 1242 681 l 1225 695 q 1230 713 1230 703 l 1242 707 l 1240 707 l 1240 707 q 1232 706 1240 706 l 1232 725 q 1245 732 1245 725 l 1245 733 l 1239 745 q 1251 755 1248 745 l 1253 754 l 1246 749 l 1237 749 l 1237 758 q 1265 774 1237 769 q 1279 734 1275 764 q 1270 718 1272 718 l 1271 696 l 1271 668 q 1263 665 1263 668 q 1270 659 1263 659 q 1256 610 1260 616 l 1254 610 q 1223 534 1248 566 l 1225 523 l 1225 512 q 1211 484 1225 498 q 1215 469 1215 477 q 1186 416 1193 439 q 1133 319 1181 413 q 1055 210 1116 304 q 955 106 977 121 q 825 16 892 37 q 757 -2 820 13 q 646 58 646 30 q 613 133 614 100 q 603 198 608 150 l 608 212 l 606 217 q 621 265 606 235 q 612 264 621 264 q 622 307 616 294 l 623 307 l 624 307 q 452 109 560 221 q 248 -32 356 22 q 176 -56 224 -47 l 159 -54 l 154 -56 q 16 52 62 -56 q 2 110 2 87 q -5 176 -3 132 q -3 182 -3 181 l -5 193 l 0 218 q -3 239 -3 228 q 10 244 5 244 l 10 238 q 2 243 12 238 q 15 264 2 253 q 21 261 15 261 q 10 256 21 256 l 2 256 l 2 270 l 14 302 q 7 302 14 302 q 14 354 13 354 l 15 352 q 28 364 15 364 l 28 365 l 22 373 l 22 380 q 56 453 34 432 l 56 448 q 48 458 48 448 q 62 475 48 466 q 61 487 61 477 l 67 491 l 66 494 l 66 507 q 85 519 77 507 l 92 515 l 92 513 l 92 513 l 87 521 l 87 531 l 104 528 l 104 528 q 84 545 84 535 q 112 595 84 553 q 140 650 112 614 q 161 673 140 661 q 172 690 161 679 q 214 740 196 740 l 214 741 l 209 750 q 235 773 231 758 q 294 842 294 825 l 317 842 q 324 851 318 842 l 324 854 q 320 852 324 852 q 340 873 327 873 q 340 868 340 868 q 357 890 341 868 l 371 896 q 366 891 371 891 q 402 916 383 916 q 412 922 403 922 l 428 919 l 424 919 q 522 960 424 947 l 537 960 q 534 964 534 960 m 235 742 l 235 748 l 230 748 l 230 742 l 235 742 m 1246 640 l 1246 643 l 1240 643 l 1240 640 q 1246 640 1240 640 m 1238 625 q 1238 627 1238 627 l 1235 627 q 1235 627 1235 627 l 1235 625 l 1238 625 m 1209 594 q 1223 589 1215 589 l 1223 574 l 1194 570 l 1194 580 q 1209 594 1200 594 m 1211 550 l 1211 548 q 1204 548 1204 548 l 1204 550 l 1211 550 m 1202 535 q 1198 530 1202 530 l 1200 522 l 1199 519 l 1192 524 q 1199 534 1192 527 l 1199 535 l 1202 535 m 59 414 l 59 418 l 51 418 l 51 414 l 59 414 m 54 394 l 54 397 l 51 397 l 51 394 l 54 394 m 640 392 l 640 397 l 634 397 l 634 392 l 640 392 m 537 251 l 537 257 l 532 257 l 532 251 l 537 251 z "},"X":{"ha":763,"x_min":-231,"x_max":1102,"o":"m 661 960 q 718 913 718 944 q 692 892 712 892 l 667 901 l 667 901 q 559 770 621 859 q 464 644 549 764 q 431 600 456 644 q 406 579 420 587 q 328 465 406 570 q 271 383 319 458 q 263 369 263 380 q 315 272 265 348 q 358 210 328 262 q 406 160 360 210 q 574 92 507 92 q 602 82 574 89 q 608 85 602 82 q 616 83 616 85 l 629 85 l 635 85 l 652 80 q 696 85 667 80 q 702 82 701 82 q 812 111 745 97 q 870 134 825 119 q 924 162 870 144 q 954 180 924 173 q 994 212 955 192 q 1044 235 1007 212 q 1059 233 1049 233 l 1059 220 q 1049 210 1049 208 l 1056 210 q 1011 174 1042 186 q 962 133 991 146 q 927 113 941 115 q 880 87 927 108 q 734 41 779 41 q 721 26 721 38 l 710 33 q 680 26 687 26 l 661 31 q 639 26 659 31 q 637 28 633 28 l 637 24 l 616 31 l 612 28 q 529 46 551 37 q 533 41 533 46 q 379 109 430 73 q 286 204 313 162 q 221 315 251 254 l 222 314 l 16 5 q -78 -140 -20 -43 l -134 -221 q -190 -302 -180 -302 q -194 -310 -190 -302 q -226 -292 -224 -310 l -224 -284 l -231 -284 l -231 -275 q -207 -241 -218 -250 q -208 -234 -208 -240 l -176 -199 q -177 -193 -177 -197 q -145 -136 -177 -176 q -136 -115 -136 -124 q -119 -109 -119 -109 l -119 -109 l -124 -109 l -124 -100 q -95 -55 -108 -69 q -61 -17 -84 -17 l -61 -18 l -73 -18 q -30 27 -30 26 l -35 35 q -20 62 -31 60 l -9 62 l 1 77 l 1 71 l 1 71 l 1 59 l -7 59 q -17 69 -17 59 q 18 100 -17 84 l 18 97 q 8 107 8 97 l 8 112 q 34 149 34 139 l 44 149 l 47 146 q 49 141 49 148 l 51 142 l 41 142 l 41 158 q 73 192 66 192 l 68 192 l 65 197 l 68 197 l 68 197 q 93 224 87 224 l 96 224 l 99 223 l 118 244 l 118 250 l 113 258 q 140 294 117 294 l 138 300 l 138 309 l 157 309 l 157 299 q 154 296 154 294 l 149 299 q 162 326 149 326 l 170 325 q 187 366 181 363 l 186 368 l 191 382 q 180 413 191 389 q 87 696 118 563 l 87 705 q 57 805 79 719 l 18 936 l 18 942 q 50 954 43 954 q 96 889 83 954 q 164 630 118 821 q 236 438 218 470 q 258 461 233 438 q 275 463 275 463 l 275 466 q 268 470 275 466 q 302 521 268 500 q 293 515 302 515 q 307 524 293 515 q 306 533 306 526 q 316 537 315 537 l 316 553 q 334 568 321 553 q 354 589 346 568 l 354 601 q 368 619 363 601 q 390 630 390 631 q 387 643 387 635 q 404 649 405 649 l 402 662 q 419 682 412 662 q 429 692 426 682 q 444 715 439 692 q 462 726 452 715 q 484 769 465 726 l 490 769 l 492 768 l 493 771 l 492 774 q 518 802 492 785 q 541 838 535 838 q 555 845 554 843 l 553 862 q 588 896 567 878 q 634 951 588 915 q 661 960 654 960 m 507 776 l 507 779 q 502 779 502 779 l 502 776 l 507 776 m 393 613 l 393 616 q 395 616 395 616 l 395 613 q 395 613 395 613 l 393 613 q 393 613 393 613 m 334 540 l 334 537 l 332 537 l 333 539 l 334 539 q 334 540 334 539 m 261 435 l 261 444 l 255 444 l 255 435 l 261 435 m 1086 260 l 1102 260 l 1102 240 q 1087 224 1087 238 l 1053 224 q 1086 260 1086 256 m 75 176 l 75 182 l 69 182 l 69 176 l 75 176 m -131 -155 l -131 -149 l -139 -149 l -139 -155 l -131 -155 m -193 -203 l -179 -203 l -179 -221 l -193 -221 l -193 -203 z "},"Y":{"ha":744,"x_min":-126,"x_max":776,"o":"m 497 994 q 531 960 522 994 q 509 897 531 948 q 490 842 496 874 l 492 842 q 480 667 483 816 q 482 642 482 655 l 480 623 q 486 602 480 621 q 478 547 481 602 l 484 547 q 478 535 478 536 l 480 513 q 476 492 476 496 l 479 492 l 466 401 l 464 401 q 482 405 470 405 q 487 399 482 399 q 496 406 496 404 l 486 404 q 505 427 486 419 q 519 439 505 429 l 526 439 q 533 440 533 439 q 527 439 530 439 l 526 447 l 560 467 l 564 467 q 572 465 570 467 l 583 471 l 589 471 l 589 469 q 581 468 589 468 l 581 484 q 593 481 590 484 l 604 484 q 604 481 609 481 q 603 488 604 488 l 604 485 l 604 498 q 633 509 621 498 q 661 528 640 509 q 693 541 669 528 l 700 541 q 702 538 704 538 q 735 559 718 559 q 745 568 739 568 l 750 567 q 762 574 750 567 l 767 574 q 776 560 776 572 q 751 539 762 556 q 648 470 695 505 q 623 456 643 470 l 579 431 q 463 347 528 391 q 452 338 452 340 q 455 325 455 338 q 448 322 450 325 l 448 319 q 451 312 448 316 q 393 118 426 209 q 366 52 388 111 q 301 -71 315 -50 q 292 -87 292 -76 q 241 -163 258 -144 q 138 -275 224 -199 q 119 -288 138 -279 q 35 -338 108 -304 l 26 -338 l 28 -340 q -41 -342 28 -340 q -115 -281 -115 -322 q -111 -273 -111 -273 q -118 -262 -113 -273 l -118 -252 q -111 -253 -111 -252 l -111 -254 l -115 -254 l -115 -244 q -117 -237 -115 -237 q -115 -235 -115 -239 q -96 -189 -106 -205 l -96 -174 l -87 -174 l -83 -176 l -85 -179 l -88 -174 q -50 -104 -88 -159 q -26 -74 -50 -94 q 16 -28 -2 -28 l 16 -18 q 60 36 22 -12 q 69 37 64 36 l 67 45 q 96 76 86 59 q 116 97 102 76 q 142 112 132 112 q 134 110 142 110 q 154 124 134 121 l 163 122 l 159 122 l 159 113 q 153 122 157 113 q 222 203 153 138 l 318 288 l 321 286 q 346 306 337 306 q 360 321 351 319 l 370 321 q 371 315 370 315 q 386 327 373 315 q 393 334 393 327 l 393 350 q 414 370 399 350 l 414 384 q 420 380 420 384 q 416 399 416 393 l 418 402 q 416 412 416 405 q 422 416 425 416 l 422 413 l 425 428 q 422 439 422 428 l 427 441 q 425 473 425 463 l 425 483 l 429 497 q 423 498 429 498 q 431 530 429 517 q 429 543 429 533 q 435 557 434 543 q 431 567 431 557 l 433 577 q 426 580 433 580 q 431 591 431 591 l 429 595 q 439 610 429 610 l 439 604 q 431 633 431 604 q 437 635 436 633 q 429 669 434 642 q 437 693 429 677 q 431 710 431 703 q 433 727 431 720 l 431 740 l 433 753 q 429 760 429 753 l 435 760 q 367 653 424 747 q 347 635 347 642 l 351 629 q 245 494 292 560 q 186 428 241 493 q 131 371 182 428 q 102 347 127 371 q -41 268 14 268 q -104 300 -90 268 q -122 338 -122 324 l -122 342 l -118 349 l -118 344 q -124 355 -124 344 l -123 358 q -126 378 -126 370 l -123 379 l -124 387 q -121 397 -123 397 l -124 409 q -116 441 -119 420 q -118 452 -118 441 l -112 455 q -113 469 -113 463 q -104 491 -113 477 q -105 500 -105 493 l -102 502 l -103 507 q -94 529 -103 514 l -97 538 q -76 591 -87 552 q -62 623 -70 591 q -47 661 -55 623 q -34 690 -43 661 q -27 694 -30 690 l -27 694 l -31 701 l -12 714 l -12 703 l -18 703 l -18 700 q -22 711 -22 705 q -6 736 -15 736 q -11 732 -4 732 q 5 755 -1 755 q 2 758 5 753 q 37 820 12 787 q 71 888 37 828 q 99 956 87 911 q 109 958 104 956 q 140 930 140 951 q 76 804 140 919 q -2 640 47 758 q -75 399 -52 542 q -73 394 -75 399 l -75 380 q -70 384 -75 384 q -75 372 -75 373 q -51 315 -72 315 l -34 315 q 77 383 -4 315 q 106 409 77 386 q 125 427 108 416 q 190 498 125 432 q 251 570 223 542 q 321 661 269 600 q 354 711 321 668 q 393 757 367 737 q 415 802 393 781 q 422 795 425 795 l 422 796 l 422 791 q 410 804 413 791 q 446 897 446 849 q 463 976 456 937 q 497 994 473 990 m 343 665 l 343 673 l 336 673 l 336 665 l 343 665 m 324 637 l 324 637 l 324 640 l 321 640 q 319 638 319 640 q 324 637 319 637 m 294 604 l 294 606 l 291 606 q 296 610 296 610 q 297 604 296 604 l 294 604 q 294 604 294 604 m 286 593 l 281 593 l 281 587 l 286 587 q 286 593 286 587 m 275 574 l 275 578 q 274 578 275 578 l 271 578 l 271 575 q 272 574 271 574 l 275 574 m 254 547 l 254 547 l 250 547 l 250 542 l 254 542 q 254 547 254 542 m 556 439 l 556 446 l 549 446 l 549 439 l 556 439 m 531 425 l 531 429 l 530 429 q 528 424 528 429 l 529 424 q 531 425 531 424 m 395 341 l 395 325 q 381 314 386 325 q 378 309 378 314 q 361 314 368 314 l 361 321 q 395 341 361 332 m 417 304 l 417 310 l 408 310 l 408 304 l 417 304 m -71 -246 q -47 -298 -68 -298 q -11 -307 -47 -303 q 75 -273 12 -307 l 81 -273 q 92 -264 81 -264 q 99 -253 93 -264 q 129 -227 111 -248 q 132 -231 136 -231 l 130 -220 q 161 -199 140 -220 l 161 -212 l 159 -212 l 159 -214 l 153 -206 q 184 -181 163 -192 l 191 -174 l 191 -178 l 186 -178 l 186 -163 q 214 -127 192 -163 l 222 -127 l 220 -126 l 220 -134 q 218 -122 218 -131 l 233 -104 l 237 -106 q 235 -108 237 -108 l 237 -111 l 237 -92 q 254 -66 245 -85 q 255 -70 257 -66 l 252 -70 q 288 -10 273 -30 q 303 19 288 3 l 302 20 q 338 97 302 33 l 347 97 l 347 97 l 343 88 q 334 99 334 88 q 368 190 359 157 q 399 292 392 279 q 393 287 399 287 q 401 301 401 300 l 401 301 l 403 301 q 124 41 298 218 q -65 -231 -59 -168 q -71 -246 -68 -231 m 191 147 l 191 154 l 188 154 q 186 153 186 154 l 186 146 q 191 147 189 147 m 39 -22 l 39 -17 l 35 -17 l 35 -22 l 39 -22 m -1 -70 l -1 -62 l -8 -62 l -8 -70 l -1 -70 m 28 -330 l 28 -323 l 22 -323 l 22 -330 l 28 -330 z "},"Z":{"ha":962,"x_min":-99,"x_max":1000,"o":"m 372 972 q 393 970 381 972 l 397 972 l 424 966 q 419 968 419 966 q 498 913 454 968 q 514 882 498 907 q 520 861 514 861 q 518 846 520 853 l 520 827 q 490 703 520 791 q 469 674 486 703 q 399 587 456 649 l 399 591 q 457 598 449 596 q 572 570 534 591 q 642 496 642 530 q 651 487 644 487 l 646 476 l 646 479 q 654 473 646 479 l 651 466 q 661 439 651 466 q 660 432 661 435 q 661 432 661 430 l 669 432 l 677 426 l 677 426 l 677 431 q 694 448 677 435 l 700 448 l 706 444 l 705 444 l 713 450 q 715 448 720 448 q 726 463 718 463 l 734 463 q 732 455 734 455 l 742 455 q 741 454 741 455 q 732 471 741 458 q 747 475 743 471 q 766 473 758 475 q 777 475 777 477 l 777 472 l 770 472 l 770 487 q 774 491 774 487 l 784 487 l 784 487 q 828 506 792 496 q 828 500 829 500 l 827 500 q 840 514 834 514 q 849 508 849 514 l 846 508 q 854 518 852 508 l 863 523 q 869 520 868 520 l 865 520 l 865 511 l 861 511 l 861 524 q 873 526 867 524 q 879 524 878 524 q 883 536 883 528 l 895 536 l 901 534 q 910 541 904 541 l 916 541 l 921 538 l 916 538 q 924 551 916 541 l 937 543 l 940 543 l 940 541 l 937 547 q 986 557 943 553 l 1000 541 q 882 488 971 514 q 798 449 875 481 q 705 402 793 444 q 665 362 665 386 l 665 360 q 668 363 665 363 q 657 293 659 327 q 646 270 650 287 l 648 254 q 644 255 644 253 l 646 243 q 610 159 627 220 q 588 107 593 127 q 559 58 583 105 q 496 -35 532 7 l 496 -35 l 498 -41 l 462 -78 l 415 -133 q 352 -187 355 -187 q 319 -211 352 -196 q 264 -245 319 -215 q 264 -242 259 -242 q 243 -252 264 -250 l 243 -251 q 233 -262 243 -262 l 226 -262 l 226 -258 q 219 -271 226 -258 q 195 -276 208 -271 q 193 -273 191 -273 q 180 -286 193 -286 q 117 -307 172 -292 l 113 -304 q 79 -318 87 -311 l 74 -315 q 22 -319 50 -319 q -80 -281 -37 -319 l -94 -252 q -99 -231 -99 -243 q -81 -157 -99 -194 q -66 -136 -77 -136 l -66 -144 l -70 -144 l -70 -136 q 61 29 -56 -94 l 112 76 q 132 90 122 76 q 199 147 160 110 l 240 175 q 301 218 267 187 q 334 242 326 227 q 352 254 343 242 l 363 254 q 362 246 363 246 q 360 243 363 246 l 355 243 q 376 267 359 260 q 419 294 376 272 q 473 332 433 319 l 486 336 l 490 334 q 523 355 495 336 l 544 358 l 544 349 q 542 348 542 345 l 538 348 q 541 365 541 355 l 553 362 q 568 375 563 375 l 574 375 q 572 370 574 373 l 572 370 l 572 385 q 602 393 591 393 q 606 387 606 385 l 604 387 q 605 386 605 389 q 600 386 606 386 l 600 402 q 623 413 623 406 q 600 494 618 451 q 522 546 575 530 q 446 552 495 552 q 355 531 399 548 q 304 503 311 509 q 241 458 283 479 q 204 437 241 450 l 195 437 q 173 464 173 442 q 262 535 173 484 q 329 572 284 550 q 349 596 340 596 l 349 596 q 374 614 363 610 q 379 624 374 624 l 378 630 l 401 650 q 421 680 407 653 q 436 704 431 680 l 444 704 q 446 702 447 702 l 446 699 q 443 708 443 699 l 443 718 q 447 717 449 718 l 447 717 l 447 729 q 471 780 460 729 q 478 773 478 780 q 474 783 474 773 q 478 825 478 818 q 476 861 476 852 q 463 893 469 865 q 420 924 433 923 q 388 928 405 928 l 384 928 q 182 835 317 928 q 64 696 64 743 q 43 683 54 688 q 12 718 19 683 q 27 741 13 729 l 25 744 l 50 772 q 50 779 50 773 q 146 869 77 815 q 320 960 241 938 q 362 972 359 968 l 372 972 m 852 520 l 856 508 l 847 503 l 838 503 l 838 511 q 852 520 840 520 m 819 488 l 819 494 l 812 494 l 812 488 l 819 488 m 810 484 l 810 482 l 810 483 l 804 483 q 803 484 803 485 l 810 484 m 626 393 l 626 403 l 619 403 l 619 393 l 626 393 m -49 -233 q 7 -282 -49 -270 l 14 -282 q 102 -273 32 -282 l 110 -278 l 109 -278 l 115 -275 l 118 -275 q 125 -275 123 -275 l 130 -274 q 134 -276 134 -276 l 133 -278 q 132 -267 132 -276 q 160 -257 149 -257 l 168 -271 q 151 -270 151 -271 l 151 -269 l 146 -269 q 167 -263 149 -267 l 167 -269 l 159 -266 q 179 -246 159 -253 q 186 -243 179 -243 l 193 -243 l 193 -260 l 188 -260 l 188 -260 q 188 -260 188 -260 q 187 -257 188 -257 l 189 -260 l 189 -251 l 202 -251 q 209 -247 209 -251 q 235 -234 216 -241 l 235 -233 l 235 -238 l 239 -238 q 224 -244 231 -244 q 214 -242 220 -242 l 214 -227 q 243 -214 223 -227 q 241 -222 244 -222 l 271 -197 q 297 -180 290 -189 q 317 -189 309 -180 q 317 -184 315 -189 l 317 -189 q 306 -186 321 -189 l 306 -171 q 337 -153 314 -171 q 364 -138 355 -151 l 362 -125 l 372 -121 q 375 -123 377 -123 q 393 -102 383 -109 l 395 -92 l 403 -92 l 414 -90 l 420 -90 q 421 -90 421 -89 l 421 -94 l 421 -94 l 416 -83 l 416 -78 q 427 -65 416 -71 q 444 -55 427 -55 q 450 -57 447 -57 l 447 -57 l 447 -64 q 437 -50 437 -62 l 453 -38 l 452 -37 l 452 -22 q 470 -17 464 -22 l 468 -2 q 478 7 478 0 l 491 7 l 496 8 l 496 3 q 488 24 488 3 q 509 41 507 41 q 523 48 523 47 l 527 54 l 527 50 l 532 50 l 532 41 l 511 41 l 511 56 q 522 74 518 56 q 536 99 530 74 l 545 99 q 551 85 551 92 l 545 85 q 549 94 545 87 q 545 102 548 102 q 556 123 545 113 l 556 118 q 551 127 551 118 l 551 132 q 564 139 564 140 l 564 141 q 558 143 564 140 q 572 164 558 163 l 572 162 q 566 161 572 161 l 566 170 q 576 181 566 180 l 576 177 l 572 193 q 588 229 585 193 q 604 258 598 254 l 604 264 q 595 260 604 260 l 621 290 l 621 296 q 611 294 621 294 l 611 309 q 610 317 611 319 q 615 329 615 317 q 621 348 619 334 q 623 357 621 357 q 537 309 612 357 q 404 230 515 300 l 283 148 q 92 -10 178 73 q 8 -101 81 -19 q -49 -233 -49 -180 m 444 288 l 444 292 q 437 293 444 293 l 437 288 l 444 288 m 622 301 l 622 288 q 607 278 622 278 l 607 292 q 622 301 608 301 m 434 282 l 434 291 l 429 291 l 429 282 l 434 282 m 309 202 l 309 209 l 302 209 l 302 202 l 309 202 m 562 100 l 562 109 l 554 109 l 554 100 l 562 100 m 462 -58 l 462 -54 l 456 -54 l 456 -58 l 462 -58 m 274 -215 l 274 -210 l 272 -210 q 271 -212 271 -210 l 271 -215 l 274 -215 m 208 -233 l 212 -233 q 221 -248 221 -235 q 214 -256 216 -248 l 205 -256 q 193 -243 199 -256 l 208 -233 m 116 -267 l 133 -267 l 133 -281 l 125 -281 q 116 -267 116 -281 m 71 -293 l 71 -286 l 68 -286 q 67 -293 67 -286 l 71 -293 z "},"[":{"ha":304,"x_min":0,"x_max":0,"o":""},"\\":{"ha":386,"x_min":0,"x_max":0,"o":""},"]":{"ha":345,"x_min":0,"x_max":0,"o":""},"^":{"ha":292,"x_min":0,"x_max":0,"o":""},"_":{"ha":549,"x_min":0,"x_max":0,"o":""},"`":{"ha":694,"x_min":0,"x_max":0,"o":""},"a":{"ha":393,"x_min":-107,"x_max":416,"o":"m 129 602 q 191 569 156 602 q 227 545 227 569 q 229 542 229 545 q 191 425 191 473 l 191 417 q 205 393 197 393 l 221 393 q 349 496 259 393 q 387 528 349 503 q 408 558 392 548 l 411 558 q 416 542 411 551 q 368 454 400 494 q 216 336 278 336 q 132 401 159 336 l 132 406 l 123 406 q -31 322 24 322 l -39 322 q -107 379 -92 322 l -107 385 q 4 539 -107 458 l 80 588 q 129 602 80 597 m -47 393 l -47 374 q -42 368 -47 368 l -37 368 q 96 447 13 368 q 148 528 148 500 l 148 531 q 123 564 148 564 q -18 460 58 542 q -47 393 -43 425 z "},"b":{"ha":335,"x_min":-41,"x_max":377,"o":"m 245 861 l 250 861 q 287 842 273 861 l 287 839 q 242 730 266 767 q 161 611 243 703 l 161 608 q 220 559 218 608 q 199 456 221 530 l 208 456 q 365 558 269 476 l 370 558 q 376 553 376 557 q 304 454 377 525 q 207 405 258 414 q 172 408 189 408 q 107 337 168 408 q 35 315 58 315 q -26 397 -23 334 l -26 410 l -1 519 q -35 535 -1 521 q -40 549 -40 544 q -24 565 -41 553 l -19 562 q 41 600 28 562 q 69 649 41 609 q 200 831 127 753 q 245 861 241 860 m 111 635 l 111 633 l 113 633 q 214 749 158 661 q 237 782 228 782 l 237 801 l 234 801 q 174 736 218 801 q 111 635 148 708 m 119 508 q 151 465 120 482 l 159 465 q 188 549 189 509 l 184 559 q 186 570 187 564 l 178 576 l 173 576 q 119 513 125 576 l 119 508 m 56 519 q 26 397 24 452 q 46 361 27 361 q 128 418 76 361 l 127 421 q 62 516 64 467 l 56 519 z "},"c":{"ha":312,"x_min":-70,"x_max":350,"o":"m 138 633 l 149 633 q 191 598 191 628 l 191 592 q 146 522 173 522 q 115 548 123 522 q 125 584 125 578 q 16 491 102 578 q -13 420 -13 433 l -13 401 q 48 374 -13 374 q 289 515 202 397 q 337 553 298 515 l 346 553 l 350 524 q 313 476 345 524 q 264 425 306 476 q 39 325 168 327 l 26 325 q -70 402 -49 325 l -70 410 q 6 543 -70 475 q 138 633 110 633 m 330 526 q 329 526 330 526 l 335 535 l 335 534 l 336 534 q 330 526 334 534 z "},"d":{"ha":481,"x_min":-91,"x_max":509,"o":"m 357 851 q 403 814 403 838 q 357 715 403 779 l 360 709 q 245 524 332 624 q 196 452 196 469 l 196 444 q 233 391 196 391 q 433 488 313 387 q 509 560 499 560 q 476 482 509 529 q 382 400 444 448 q 243 338 296 338 q 138 404 179 338 q 14 338 68 351 l -23 338 q -87 404 -87 356 q -91 416 -91 409 q 26 561 -75 484 q 122 595 68 591 q 159 585 150 585 l 165 585 q 224 715 175 640 q 277 792 233 744 q 357 851 328 851 m 227 591 l 230 591 q 292 672 241 594 l 338 764 l 338 777 q 227 601 297 767 l 227 591 m -29 418 l -29 397 q 5 385 -29 387 q 113 450 45 391 q 138 487 138 479 q 122 536 122 507 l 122 549 q 113 551 119 549 q -20 446 56 551 q -29 418 -29 426 z "},"e":{"ha":263,"x_min":-66,"x_max":303,"o":"m 117 611 q 154 588 134 611 q 136 525 154 551 q 26 440 69 448 q -4 426 -4 426 l -4 416 q 51 385 -4 385 q 125 402 88 389 q 229 493 162 415 q 272 548 241 522 l 282 548 q 287 532 282 538 l 287 526 q 79 340 217 368 q 50 336 65 340 q -63 420 -35 336 l -66 460 l -55 460 q 33 576 -47 511 q 117 611 85 611 m 8 480 l 4 480 q 111 566 83 507 l 111 568 q 113 571 111 571 q 8 480 63 561 l 8 480 m 296 561 l 303 547 l 292 542 l 276 542 l 276 557 l 296 561 z "},"f":{"ha":325,"x_min":-105,"x_max":351,"o":"m 244 860 q 288 817 274 860 q 234 668 288 743 q 120 549 226 640 l 120 546 q 139 509 139 524 l 139 458 q 234 455 201 436 q 305 516 267 473 q 338 553 337 553 l 338 559 l 351 559 l 351 536 q 291 437 317 468 q 225 393 266 407 q 130 397 185 379 l 125 397 q 75 195 125 383 q -1 37 66 159 q -56 11 -35 11 q -105 79 -105 28 q -100 128 -105 94 q -102 151 -102 143 q -54 357 -83 241 q -36 422 -36 422 l -39 427 q -9 502 -28 469 l -9 504 q 5 551 -14 551 q 23 572 7 551 l 20 577 q 73 669 55 652 q 108 724 89 724 l 108 726 q 105 736 105 731 q 231 857 186 857 l 244 860 m 79 583 l 80 583 q 190 680 173 659 q 238 780 238 738 l 233 780 l 238 789 l 238 808 q 235 810 238 810 q 146 705 188 776 q 79 583 79 600 m 40 490 q -2 365 20 461 q -50 94 -50 155 q -47 72 -47 83 q 43 254 -21 72 q 83 427 74 377 q 40 490 56 458 z "},"g":{"ha":374,"x_min":-283,"x_max":413,"o":"m 133 606 q 188 566 188 593 q 199 534 196 566 q 171 327 199 465 q 211 359 195 342 q 269 410 227 376 q 319 458 303 444 q 366 526 335 473 q 410 541 402 555 q 413 537 410 537 q 373 463 413 514 q 277 353 332 412 q 147 235 187 281 q 87 58 111 88 q 61 -5 87 53 q 35 -49 61 -12 q -40 -189 8 -110 q -149 -302 -88 -267 q -244 -325 -210 -338 q -280 -259 -278 -311 q -254 -116 -283 -206 q -111 100 -224 -26 q 107 273 21 235 l 142 439 l 142 448 l 136 448 q 12 374 81 374 q -54 434 -54 386 l -54 446 q 107 601 -54 528 q 133 606 128 604 m -2 451 l -2 428 q 15 420 1 420 l 35 420 q 136 520 98 456 l 133 546 l 136 566 l 124 566 q 9 486 70 557 q -2 451 -2 464 m -204 -281 q -177 -274 -204 -281 q -66 -150 -151 -268 q 30 40 7 -37 q 50 89 50 64 q 94 219 57 92 l 1 149 q -125 4 -52 104 q -228 -187 -197 -81 q -204 -281 -258 -294 z "},"h":{"ha":410,"x_min":-88,"x_max":435,"o":"m 143 881 q 165 867 157 876 q 112 717 156 848 q 79 628 87 676 q 7 431 22 491 l 4 431 q 43 471 23 444 q 79 511 45 471 l 143 562 l 189 577 q 239 520 223 577 l 239 517 q 227 417 240 507 q 236 390 233 390 l 243 390 q 384 516 283 390 q 410 551 391 529 l 412 562 l 428 562 l 426 546 q 435 538 435 545 q 422 487 428 524 l 372 420 l 323 377 q 247 337 275 337 q 178 388 200 337 l 176 423 q 187 519 175 445 q 182 529 186 529 q 23 378 132 510 q -48 276 -11 311 q -88 299 -87 279 q -85 311 -87 311 q -87 307 -84 307 q -71 351 -77 351 l -72 362 q -33 474 -72 370 l -33 473 l -38 473 q 5 573 -9 532 q 101 813 15 606 q 143 881 125 881 z "},"i":{"ha":267,"x_min":-62,"x_max":296,"o":"m 168 795 q 198 789 197 789 l 198 781 q 109 697 189 751 q 49 673 68 673 q 22 700 22 676 q 109 762 22 720 q 168 795 130 779 m 19 572 l 24 572 q 46 559 39 572 l 46 551 q 0 410 0 464 l 0 380 q 16 350 0 359 l 38 350 q 165 431 74 350 q 182 448 174 431 q 255 524 186 448 q 263 540 259 524 q 288 551 279 551 l 290 551 q 296 545 296 550 q 203 393 273 473 q 65 301 123 316 l 38 296 q -57 388 -57 307 q -62 404 -60 388 q -3 548 -42 511 l 19 572 z "},"j":{"ha":292,"x_min":-381,"x_max":347,"o":"m 56 741 q 64 733 60 741 l 64 722 q 23 671 50 671 q -15 692 -4 671 l -15 703 q 56 741 -3 728 m 28 562 q 50 516 50 555 l 50 508 q 56 364 50 458 l 61 361 q 107 408 73 386 q 164 452 132 429 q 211 485 189 470 q 257 511 227 494 q 266 530 269 528 q 271 524 267 524 q 296 543 281 539 l 301 541 l 315 541 q 341 543 331 551 q 195 426 347 531 l 75 321 q 53 299 53 311 l 56 288 q 39 161 51 274 q -42 -73 9 46 q -94 -165 -42 -89 q -115 -200 -98 -165 q -302 -338 -230 -338 q -381 -230 -381 -338 q -340 -111 -357 -111 q -338 -108 -338 -111 l -338 -97 q -340 -94 -338 -94 q -319 -48 -319 -51 q -292 -16 -299 -16 l -294 -2 q -273 28 -294 2 q -245 66 -273 35 q -218 98 -237 97 l -221 104 q -172 161 -201 130 q -156 177 -172 164 q -118 218 -156 193 l -123 226 q -69 264 -110 245 q -28 294 -69 270 q -4 326 -28 302 l -4 353 q -1 391 -4 368 q -7 413 -7 406 l -4 446 q -12 543 -7 495 q 28 562 -12 562 m -302 -97 l -300 -111 q -327 -168 -313 -155 l -324 -181 l -324 -186 q -330 -203 -324 -194 q -327 -224 -327 -218 q -330 -246 -327 -231 q -308 -290 -318 -290 l -283 -290 q -197 -224 -214 -246 q -96 -67 -115 -123 q -28 112 -53 12 l -15 172 l -18 177 q -9 207 -9 203 l -9 234 q -7 237 -9 237 l -9 242 l -9 256 l -12 256 q -197 60 -161 120 q -286 -81 -286 -60 q -302 -97 -290 -81 z "},"k":{"ha":384,"x_min":-101,"x_max":413,"o":"m 134 930 q 160 897 160 918 q 52 587 81 663 l 36 548 q 38 544 38 544 l 41 544 q 131 596 83 559 q 227 664 208 664 q 256 630 254 664 q 76 515 175 564 q 53 506 66 515 q 142 389 94 429 q 171 383 148 385 q 356 529 231 380 q 408 554 380 554 l 413 546 q 243 361 345 423 q 166 331 200 333 q 17 462 95 331 q 12 470 11 470 q -46 335 -20 400 q -78 297 -67 300 l -81 297 q -101 315 -101 309 q -41 476 -95 345 q -34 496 -41 488 l -36 518 q 21 662 -14 543 q 72 808 39 692 q 105 918 98 872 q 134 930 117 930 z "},"l":{"ha":335,"x_min":-41,"x_max":363,"o":"m 251 857 q 297 822 294 857 q 248 686 282 725 q 121 570 205 623 q 33 518 31 533 q 11 404 19 494 l 13 380 q 51 347 16 347 l 62 347 q 182 394 118 347 q 262 457 226 421 q 325 515 267 469 l 351 553 q 363 545 363 549 q 269 406 344 470 q 71 301 161 301 l 57 301 q -38 372 -9 301 l -41 404 q -16 507 -35 476 q -12 556 -18 538 q 6 575 -6 575 q 30 618 5 585 q 98 727 31 649 q 251 857 200 857 m 70 600 l 75 597 q 210 716 163 642 q 254 806 229 731 l 254 819 q 154 735 229 819 q 70 600 76 632 z "},"m":{"ha":565,"x_min":-73,"x_max":585,"o":"m 368 588 q 402 553 401 578 q 374 420 372 458 l 375 406 q 390 390 376 390 l 395 390 q 526 482 439 393 q 580 555 553 512 l 583 550 q 576 515 584 529 l 576 509 l 585 509 q 513 413 558 463 q 403 338 448 338 q 334 387 355 338 q 330 417 330 406 l 329 431 q 355 528 336 471 q 348 531 351 531 q 227 387 285 496 q 206 376 214 376 l 202 376 q 182 393 189 376 l 182 398 q 218 458 180 421 q 231 501 217 463 l 229 534 q 208 542 229 541 q -1 347 127 517 q -41 281 -23 281 l -46 281 q -73 309 -72 288 q 3 493 -12 399 q 7 562 -10 549 l 32 562 l 48 540 q 44 471 43 477 l 44 469 l 49 469 q 139 553 102 532 q 195 580 138 559 l 210 580 q 273 531 250 580 l 275 531 q 368 588 346 588 z "},"n":{"ha":433,"x_min":-87,"x_max":460,"o":"m 21 575 q 49 554 47 573 l 50 549 q 35 504 52 527 l 35 501 l 37 501 q 120 564 92 559 q 144 581 119 569 l 161 581 q 220 515 214 581 q 213 496 213 501 l 216 492 q 201 408 199 428 l 202 391 q 210 385 203 388 l 215 385 q 337 445 282 401 q 416 523 392 488 q 440 546 433 544 q 454 544 448 549 q 446 515 460 538 q 368 418 406 454 q 276 352 330 382 q 227 336 260 342 q 149 389 153 343 q 145 404 146 393 q 170 515 144 420 l 168 534 q 162 538 167 538 l 153 538 q 71 469 113 509 q 50 443 68 469 q 9 387 41 439 q -8 347 0 385 q -43 294 -35 297 q -52 289 -42 292 q -87 315 -85 296 l -87 317 q -48 448 -82 366 q 3 566 -19 499 q 21 575 14 575 z "},"o":{"ha":309,"x_min":-69,"x_max":346,"o":"m 77 578 l 85 581 q 176 562 168 587 q 199 522 180 563 q 197 467 203 509 l 196 469 l 195 469 q 314 551 212 473 q 336 562 327 559 q 227 433 346 529 q 170 406 193 412 q 94 338 120 355 q 76 331 86 336 q -25 367 17 317 q -42 400 -34 382 q -4 536 -69 486 q 62 572 16 562 q 77 578 61 574 m 74 488 q 134 448 96 438 l 140 449 q 160 505 161 477 q 117 545 142 551 q 109 547 115 549 q 74 488 59 534 m 1 425 l 3 418 q 33 373 16 376 q 64 374 45 370 q 104 405 101 397 l 104 404 q 26 477 40 433 q 22 484 24 476 q 19 507 21 498 l 18 507 q 1 425 -12 465 z "},"p":{"ha":481,"x_min":-220,"x_max":508,"o":"m 22 581 q 56 551 53 572 q 52 478 51 486 l 58 478 q 131 541 64 478 q 169 559 137 541 l 174 557 q 232 573 199 573 q 297 535 256 573 l 309 508 q 235 383 317 447 q 126 326 201 358 l 127 323 q 170 310 128 313 l 178 310 q 458 507 359 359 q 508 542 477 542 l 508 539 q 441 416 494 486 q 237 279 336 309 q 79 294 135 253 q 33 340 36 340 q -16 172 5 235 q -98 -7 -47 53 q -175 -81 -155 -81 l -186 -81 q -220 -51 -216 -75 l -220 -43 q -210 -5 -213 -35 q -134 201 -179 104 q -119 234 -115 201 q -104 245 -104 240 l -106 258 q -56 334 -102 258 l -32 356 q -14 402 -34 369 q -3 489 -4 429 q 1 513 1 489 l -2 519 q 22 581 -4 581 m 33 359 l 35 359 q 61 367 41 359 q 95 361 81 361 l 100 361 q 204 413 121 361 q 247 500 245 463 l 245 511 q 221 532 243 532 q 47 394 160 523 q 33 359 32 366 m -82 261 l -81 258 q -75 253 -80 253 l -77 261 l -82 261 m -150 77 l -148 63 q -150 14 -146 54 l -147 14 q -71 174 -96 73 q -45 253 -49 232 l -51 253 l -98 182 q -136 112 -109 153 q -150 77 -133 93 m -158 117 l -157 112 l -155 112 q -150 117 -149 112 l -151 123 l -153 123 q -158 117 -159 122 z "},"q":{"ha":481,"x_min":-94,"x_max":512,"o":"m 150 616 q 215 581 215 602 q 250 564 219 574 l 264 545 l 264 537 q 185 431 185 437 q 218 374 213 399 l 223 372 l 258 372 q 431 505 346 418 q 498 556 465 526 l 504 556 q 512 545 507 556 q 496 521 512 532 q 485 524 491 524 q 428 450 465 488 q 357 376 405 427 q 258 317 325 348 l 253 317 q 250 315 250 317 l 245 317 l 237 317 l 223 315 l 223 296 q 226 293 223 293 q 215 258 222 271 q 218 250 215 255 q 127 -43 197 122 q 40 -100 89 -100 q -14 -54 -14 -86 q -25 -14 -19 -54 l -25 -3 q -22 8 -25 3 q -25 19 -25 13 q -14 60 -25 54 l -17 73 q -3 92 -17 85 l -9 103 q 47 307 -9 140 q 55 315 51 307 l 55 326 q 50 331 55 331 q 1 320 17 320 l -5 320 q -81 358 -59 320 q -94 391 -94 376 l -94 393 q -7 537 -94 460 q 101 602 2 562 l 150 616 m -35 399 l -35 382 q -10 369 -28 369 q 120 442 39 369 q 172 515 161 505 l 169 521 l 169 526 q 180 548 180 538 q 161 570 175 560 l 158 570 q -10 458 87 570 q -35 399 -35 416 m 51 144 l 51 141 q 32 24 51 119 q 40 -41 35 -19 l 48 -41 q 149 155 97 -10 q 177 282 177 277 q 174 290 177 285 l 177 307 l 177 323 q 139 353 177 326 l 136 353 q 54 146 81 275 q 51 144 51 146 z "},"r":{"ha":341,"x_min":-14,"x_max":370,"o":"m 194 640 q 222 606 208 640 q 148 465 222 577 q 123 380 123 412 q 136 368 123 368 l 148 368 q 336 526 210 388 q 357 549 357 530 q 361 553 357 553 l 363 553 q 370 547 367 553 l 370 540 q 345 498 370 529 q 256 389 335 467 q 150 322 204 342 l 141 322 q 69 366 87 322 q 67 373 69 373 q 72 382 69 382 l 69 387 l 69 403 q 134 523 77 446 q 157 555 134 528 q 171 589 171 581 l 171 592 l 161 592 q 62 562 106 562 l 60 562 q 23 515 58 562 q 9 511 16 511 l 7 511 q -14 530 -5 511 q 7 555 -12 542 q 12 566 7 559 l -4 585 l -4 587 q 12 610 -4 600 l 28 610 l 62 619 l 79 608 q 176 638 140 622 q 194 640 185 638 z "},"s":{"ha":322,"x_min":-107,"x_max":361,"o":"m 104 635 q 153 586 153 625 q 118 521 140 521 q 110 518 115 521 q 88 534 96 518 q 99 586 99 567 q 94 591 99 591 q 45 562 45 585 q 94 437 45 500 l 99 434 q 153 469 114 446 q 307 528 236 522 q 358 549 340 549 l 361 544 l 361 536 q 307 498 349 536 q 134 401 252 467 l 123 388 q 145 307 145 351 q 72 214 130 251 q -34 168 27 177 q -107 217 -107 179 l -107 231 q -66 288 -107 253 q 56 396 -37 326 l 58 401 l 58 407 q -7 556 -7 500 q 34 618 -1 618 q 104 635 71 631 m -53 222 l -53 220 q -34 212 -52 212 q 77 274 11 212 q 94 309 77 277 l 94 331 q 88 355 94 338 l 77 355 q -53 222 -53 250 z "},"t":{"ha":368,"x_min":-203,"x_max":2126,"o":"m 199 978 l 212 975 l 228 978 q 240 955 240 962 q 186 844 240 937 q 193 836 187 836 l 237 836 q 469 859 251 842 l 512 865 l 526 868 q 567 865 549 865 q 621 874 572 870 q 648 871 635 871 l 659 871 q 669 873 665 871 l 674 871 q 715 878 705 878 q 748 871 730 878 q 770 878 759 878 l 802 878 q 813 880 809 878 q 824 878 817 878 l 843 878 q 865 880 854 878 q 886 878 875 878 q 930 873 848 873 q 936 874 930 874 q 951 880 945 880 q 997 878 991 878 l 997 880 l 1017 874 l 1106 880 l 1122 878 l 1156 884 l 1159 877 l 1193 880 l 1228 880 q 1233 877 1233 880 q 1232 880 1232 877 l 1261 884 q 1297 880 1284 880 l 1297 870 l 1279 880 l 1296 880 q 1320 884 1306 880 l 1325 880 l 1367 887 l 1379 880 q 1389 884 1383 880 q 1394 880 1394 884 q 1437 884 1423 884 l 1491 884 l 1508 887 q 1514 880 1514 884 q 1537 886 1521 880 l 1551 880 q 1562 877 1556 884 l 1563 877 l 1563 868 l 1572 868 q 1578 887 1575 887 l 1642 887 l 1653 868 l 1666 868 q 1670 884 1670 881 q 1671 880 1671 884 l 1665 887 q 1702 868 1680 887 q 1710 878 1710 868 q 1702 878 1702 878 l 1709 885 l 1717 886 q 1735 865 1719 865 q 1708 880 1735 884 l 1753 880 l 1749 865 l 1757 865 q 1777 874 1767 865 q 1795 864 1784 874 l 1803 869 l 1800 877 l 1800 879 q 1801 877 1800 877 q 1824 865 1801 880 l 1835 865 q 1852 880 1835 875 q 1864 878 1856 878 q 1869 873 1858 873 q 1879 871 1869 877 q 1890 874 1881 871 l 1900 874 q 1904 880 1900 873 l 1916 880 q 1917 869 1917 879 l 1923 863 q 1904 871 1916 863 l 1904 875 l 1910 871 q 1879 863 1881 863 l 1866 863 q 1841 865 1856 863 l 1830 859 q 1801 863 1812 863 l 1797 863 q 1778 858 1778 851 q 1762 863 1769 863 q 1749 856 1753 856 l 1733 860 q 1733 853 1733 857 l 1716 853 l 1716 859 l 1710 859 q 1671 850 1705 852 q 1659 853 1671 853 q 1654 853 1659 853 q 1616 846 1628 846 l 1596 850 l 1586 844 l 1573 846 q 1537 840 1566 846 q 1495 853 1499 846 l 1491 853 q 1478 844 1482 844 q 1461 850 1470 850 l 1459 850 q 1421 834 1453 850 l 1416 837 l 1356 837 q 1332 834 1345 837 q 1320 837 1327 837 q 1305 832 1305 837 q 1285 837 1297 837 l 1269 837 q 1247 831 1266 837 l 1236 831 q 1212 837 1230 831 l 1174 827 q 1166 831 1172 827 q 1025 825 1083 825 l 1014 825 q 989 821 1004 825 l 977 827 l 897 821 l 884 825 q 873 819 873 821 l 848 821 l 810 821 q 770 814 795 821 q 757 818 762 814 l 664 812 l 648 815 q 621 808 627 808 l 593 812 q 144 772 418 802 q 126 739 146 771 q 83 648 126 732 q 31 488 31 496 q 34 479 31 485 q 26 412 26 446 l 26 384 q 71 344 33 344 q 235 423 115 344 q 298 467 271 445 q 379 574 333 505 l 383 568 q 361 494 377 526 q 238 373 274 389 q 186 335 221 355 q 68 288 117 288 q -14 328 12 296 q -27 359 -14 340 l -24 364 l -24 371 q -33 394 -24 382 l -33 399 l -27 409 l -27 428 q -24 457 -27 439 q -27 466 -27 463 q 5 576 -19 513 q 27 637 9 616 q 52 700 35 679 q 71 747 71 736 q 61 751 66 747 l -173 706 q -203 733 -197 718 q -201 749 -201 749 l -194 764 q 116 823 29 813 q 157 900 157 882 q 195 975 168 913 l 199 978 m 1823 877 l 1811 877 l 1811 891 l 1823 891 l 1823 877 m 1921 885 l 1921 861 l 1898 861 l 1898 885 l 1921 885 m 1956 871 l 1944 871 l 1944 885 l 1956 885 l 1956 871 m 1967 869 q 1954 882 1954 871 l 1967 882 l 1967 869 m 2025 876 l 2025 872 q 2020 865 2026 872 l 2018 865 l 2018 865 q 2025 876 2011 874 m 2120 870 q 2112 874 2126 874 q 2112 876 2112 876 l 2119 876 l 2119 873 l 2120 870 m 1624 854 q 1637 879 1624 876 l 1652 879 l 1652 865 l 1645 848 q 1624 854 1633 854 m 1980 869 q 1982 863 1982 869 l 2005 869 q 1973 869 1973 869 l 1980 869 m 2051 858 l 2039 858 l 2039 872 l 2051 872 l 2051 858 z "},"u":{"ha":403,"x_min":-54,"x_max":433,"o":"m 38 567 q 65 556 50 567 q 16 469 65 547 q 0 393 5 446 q 11 380 5 381 q 119 448 38 380 q 217 556 161 489 q 250 562 236 562 l 258 562 q 269 548 262 562 q 236 505 269 543 q 209 439 225 489 l 209 415 q 222 401 209 412 q 384 526 262 401 q 425 564 406 556 l 427 564 q 433 559 433 564 q 323 399 412 496 q 222 353 271 353 l 220 353 q 146 420 172 353 q 35 336 61 336 q 3 331 16 331 q -54 391 -42 331 l -54 393 q 19 562 -54 474 q 38 567 24 562 z "},"v":{"ha":321,"x_min":-48,"x_max":307,"o":"m 304 616 q 307 611 304 611 q 258 516 276 536 q 229 467 233 484 q 9 307 77 307 q -48 364 -35 307 l -48 367 q 9 578 -48 414 q 44 587 36 587 q 55 562 55 587 q 3 372 20 469 l 3 364 q 12 356 3 360 q 185 492 58 356 q 234 554 193 492 q 291 616 239 554 l 304 616 z "},"w":{"ha":606,"x_min":-75,"x_max":654,"o":"m 440 583 q 459 570 455 583 q 454 488 454 512 q 465 483 460 483 q 608 529 500 483 l 619 529 q 649 562 619 541 l 654 562 q 519 439 654 510 q 475 431 495 431 q 413 442 457 431 q 223 293 290 293 q 136 374 155 293 l 131 374 q 3 279 65 290 l 1 279 q -75 345 -54 279 q -16 506 -75 407 q 52 571 -16 551 q 71 560 71 566 q 33 500 71 553 q -16 382 -16 397 l -16 345 q -2 331 -16 341 l 3 331 q 136 437 43 331 q 169 486 141 437 l 180 494 l 212 494 q 223 483 215 494 l 188 399 q 215 342 188 354 l 218 342 q 386 483 272 342 l 405 551 q 440 583 440 560 z "},"x":{"ha":358,"x_min":-85,"x_max":384,"o":"m 195 593 l 216 593 q 233 576 230 593 q 197 539 232 571 q 155 492 186 530 q 115 449 141 481 l 115 444 q 168 412 144 412 q 265 466 212 424 q 293 488 268 471 q 356 542 318 500 q 370 559 368 548 q 384 542 381 559 q 347 488 376 513 q 324 467 343 488 q 254 412 305 446 q 182 378 220 378 q 137 369 180 371 q 77 399 119 369 l 71 399 q -14 302 1 327 q -69 254 -58 254 l -72 254 q -85 261 -80 261 q -81 278 -81 273 q -84 285 -82 285 q -22 378 -35 371 q 32 440 14 415 q -9 548 -1 495 l -11 552 q 18 572 -8 566 q 49 548 45 572 q 76 488 61 507 l 78 488 q 148 559 148 557 q 195 593 178 593 z "},"y":{"ha":337,"x_min":-544,"x_max":2314,"o":"m 172 592 l 178 592 q 205 562 198 585 q 181 380 181 479 q 184 377 181 377 l 181 362 q 184 302 181 347 q 178 285 178 290 q 181 273 178 278 q 169 141 175 166 l 187 138 q 214 151 205 144 l 222 151 q 226 147 226 151 q 277 162 243 155 l 286 156 l 288 156 q 393 180 288 169 q 416 192 403 192 l 420 192 q 425 183 420 183 l 437 195 l 458 192 l 465 192 q 494 207 473 202 q 497 204 497 207 l 533 207 l 559 207 l 595 219 q 608 216 597 219 q 694 234 621 216 q 712 228 704 228 q 732 240 717 240 l 747 240 l 760 231 l 762 231 q 810 249 762 240 l 817 249 l 828 240 q 837 252 833 252 l 846 252 q 918 260 918 252 l 932 258 l 945 258 q 968 264 966 264 l 992 264 q 996 267 996 264 l 1001 264 l 1090 264 q 1154 260 1114 264 q 1168 267 1168 264 q 1195 258 1187 258 q 1213 264 1205 264 l 1222 264 l 1243 260 q 1249 267 1244 267 q 1252 264 1252 267 l 1273 267 l 1282 267 q 1318 258 1314 258 q 1326 270 1322 270 l 1329 270 q 1335 260 1335 270 l 1344 260 l 1356 273 l 1371 273 q 1419 267 1385 273 l 1421 273 l 1436 270 q 1457 275 1446 270 q 1466 267 1466 275 l 1470 267 l 1478 273 l 1493 273 l 1493 270 l 1491 264 l 1514 264 q 1526 281 1514 281 l 1532 279 l 1538 279 l 1574 281 l 1580 270 q 1645 285 1619 285 q 1670 275 1660 275 q 1675 281 1670 281 l 1678 281 l 1687 275 l 1696 275 l 1708 285 l 1744 279 q 1771 285 1763 285 l 1777 281 l 1783 285 l 1845 279 q 1869 288 1855 279 l 1890 288 q 1914 281 1911 281 l 1952 281 l 1967 270 l 1971 270 q 1980 285 1971 285 q 2030 270 2022 279 l 2033 270 q 2066 275 2054 270 l 2084 273 l 2096 279 l 2102 275 q 2129 279 2118 279 l 2131 279 q 2135 275 2135 279 l 2150 281 q 2161 279 2155 279 l 2165 279 q 2167 281 2167 279 q 2185 275 2177 275 l 2200 275 l 2200 270 l 2209 270 q 2221 267 2216 270 q 2233 270 2226 270 l 2239 270 q 2248 260 2243 270 q 2236 258 2243 258 l 2236 252 q 2245 245 2245 252 l 2245 243 q 2218 252 2228 247 q 2206 249 2207 249 q 2197 252 2203 249 q 2159 243 2159 249 l 2144 245 l 2140 245 q 2138 243 2138 245 q 2110 249 2131 245 q 2045 237 2068 245 l 1890 237 q 1887 234 1887 237 l 1881 237 l 1771 237 q 1744 234 1760 237 q 1732 237 1739 237 q 1702 231 1708 234 l 1685 234 l 1681 234 q 1666 231 1671 234 l 1649 234 l 1640 234 q 1610 228 1610 233 l 1604 231 l 1595 231 q 1580 228 1585 231 l 1562 231 l 1541 231 q 1499 225 1531 231 q 1314 222 1471 225 q 1291 225 1312 222 l 1278 219 q 1270 228 1278 223 l 1267 228 l 1249 219 q 1225 225 1238 225 q 1201 216 1210 216 q 1154 225 1186 216 q 1133 213 1140 213 l 1103 216 q 1025 207 1072 211 q 1016 210 1019 210 l 897 198 l 891 201 q 852 195 852 199 l 846 198 l 843 198 q 766 183 836 198 l 760 186 l 757 186 l 679 171 l 673 174 q 321 115 429 141 l 288 115 q 181 85 273 106 q 151 46 151 78 q 133 -7 144 46 q 23 -229 75 -176 q -198 -410 -64 -360 q -305 -431 -258 -431 l -326 -431 q -460 -389 -419 -419 q -544 -264 -544 -344 q -478 -154 -544 -210 q -353 -62 -447 -117 q -294 -28 -348 -62 q -40 70 -71 70 q 85 112 -8 90 q 118 138 118 115 l 118 153 l 115 171 q 130 186 115 175 l 127 201 q 130 210 130 207 l 127 216 l 130 231 l 127 243 q 130 252 130 249 q 127 273 127 264 l 130 273 l 127 279 l 127 288 l 133 296 l 130 309 l 142 338 l 127 356 l 127 386 l 133 407 q 127 431 127 426 l 124 431 q 38 332 52 332 q -25 288 12 288 q -81 338 -74 288 q -75 347 -79 347 q -79 350 -75 350 l -75 371 l -75 389 q -45 460 -66 389 q 14 565 -6 565 l 17 565 q 35 541 35 565 q -31 362 -31 402 l -31 356 l -28 341 q 58 410 5 351 q 121 499 121 490 q 154 583 143 532 q 172 592 161 583 m 2069 285 l 2078 285 l 2078 281 l 2069 281 l 2069 285 m 1517 264 l 1517 260 l 1523 260 q 1532 270 1527 260 l 1523 270 q 1517 264 1517 269 m 2269 267 q 2314 255 2287 258 l 2314 245 l 2293 249 l 2287 249 l 2272 245 q 2266 255 2266 253 l 2266 260 l 2269 267 m 437 186 l 437 180 q 450 177 444 180 l 452 183 l 446 186 l 437 186 m -484 -276 l -484 -288 q -317 -399 -455 -387 q -269 -387 -269 -391 l -254 -389 l -245 -389 l -183 -357 l -177 -359 l -168 -359 q -132 -336 -168 -341 q -75 -282 -121 -309 q -31 -237 -75 -262 q -13 -205 -13 -227 q 14 -166 -6 -205 q 41 -145 26 -145 l 41 -136 q 35 -127 35 -129 q 50 -94 45 -94 q 62 -67 60 -94 q 64 -64 64 -67 l 64 -50 q 83 -20 83 -50 q 92 -2 87 -20 q 98 4 98 -2 q 94 13 94 10 q 100 19 100 13 q 98 28 100 22 q 113 49 98 49 l 113 58 q 106 64 113 64 l 103 64 q -252 -64 -59 22 q -484 -276 -484 -188 z "},"z":{"ha":423,"x_min":-300,"x_max":452,"o":"m 191 584 q 220 562 209 584 l 220 557 q 128 465 220 541 l 128 462 q 177 361 177 427 l 177 329 l 185 329 q 199 340 199 338 l 220 364 q 301 435 275 411 q 380 512 326 458 q 452 539 433 565 l 349 425 q 166 248 236 308 q 93 44 134 118 q 44 -45 73 -1 q -140 -233 -60 -192 q -208 -271 -140 -243 l -233 -276 l -238 -276 q -300 -222 -300 -270 l -300 -219 q -214 -29 -300 -151 q -151 41 -209 -29 q -111 87 -144 42 q -59 142 -92 100 q -32 166 -43 142 q 120 286 59 233 q 128 337 128 294 q 120 405 128 375 l 112 405 q 47 370 106 405 q 36 367 41 370 q 3 399 3 380 q 52 454 3 427 q 123 522 113 505 l 117 524 l 55 524 q 17 516 31 524 q -13 541 -10 527 q 142 578 -13 578 l 166 578 q 191 584 184 584 m -249 -205 l -249 -222 q -238 -230 -249 -230 q -127 -173 -193 -230 q -100 -151 -117 -173 q -10 -45 -39 -98 q 52 60 -1 -45 q 104 199 104 189 l 98 201 q 12 128 92 201 q -178 -67 -123 12 q -249 -205 -249 -155 z "},"{":{"ha":289,"x_min":0,"x_max":0,"o":""},"|":{"ha":267,"x_min":0,"x_max":0,"o":""},"}":{"ha":307,"x_min":0,"x_max":0,"o":""},"~":{"ha":384,"x_min":0,"x_max":0,"o":""},"¡":{"ha":456,"x_min":0,"x_max":0,"o":""},"¢":{"ha":772,"x_min":0,"x_max":0,"o":""},"£":{"ha":688,"x_min":0,"x_max":0,"o":""},"¤":{"ha":688,"x_min":0,"x_max":0,"o":""},"¥":{"ha":856,"x_min":0,"x_max":0,"o":""},"¦":{"ha":688,"x_min":0,"x_max":0,"o":""},"§":{"ha":688,"x_min":0,"x_max":0,"o":""},"¨":{"ha":694,"x_min":0,"x_max":0,"o":""},"©":{"ha":1135,"x_min":0,"x_max":0,"o":""},"ª":{"ha":439,"x_min":0,"x_max":0,"o":""},"«":{"ha":640,"x_min":0,"x_max":0,"o":""},"¬":{"ha":688,"x_min":0,"x_max":0,"o":""},"®":{"ha":1135,"x_min":0,"x_max":0,"o":""},"¯":{"ha":454,"x_min":0,"x_max":0,"o":""},"°":{"ha":457,"x_min":0,"x_max":0,"o":""},"±":{"ha":688,"x_min":0,"x_max":0,"o":""},"²":{"ha":688,"x_min":0,"x_max":0,"o":""},"³":{"ha":688,"x_min":0,"x_max":0,"o":""},"´":{"ha":694,"x_min":0,"x_max":0,"o":""},"µ":{"ha":800,"x_min":0,"x_max":0,"o":""},"¶":{"ha":694,"x_min":0,"x_max":0,"o":""},"·":{"ha":345,"x_min":0,"x_max":0,"o":""},"∙":{"ha":345,"x_min":0,"x_max":0,"o":""},"¸":{"ha":694,"x_min":0,"x_max":0,"o":""},"¹":{"ha":688,"x_min":0,"x_max":0,"o":""},"º":{"ha":487,"x_min":0,"x_max":0,"o":""},"»":{"ha":640,"x_min":0,"x_max":0,"o":""},"¼":{"ha":1158,"x_min":0,"x_max":0,"o":""},"½":{"ha":1332,"x_min":0,"x_max":0,"o":""},"¾":{"ha":1158,"x_min":0,"x_max":0,"o":""},"¿":{"ha":507,"x_min":0,"x_max":0,"o":""},"À":{"ha":1044,"x_min":0,"x_max":0,"o":""},"Á":{"ha":1044,"x_min":0,"x_max":0,"o":""},"Â":{"ha":1044,"x_min":0,"x_max":0,"o":""},"Ã":{"ha":1044,"x_min":0,"x_max":0,"o":""},"Ä":{"ha":1044,"x_min":0,"x_max":0,"o":""},"Å":{"ha":1044,"x_min":0,"x_max":0,"o":""},"Æ":{"ha":1436,"x_min":0,"x_max":0,"o":""},"Ç":{"ha":949,"x_min":0,"x_max":0,"o":""},"È":{"ha":781,"x_min":0,"x_max":0,"o":""},"É":{"ha":781,"x_min":0,"x_max":0,"o":""},"Ê":{"ha":781,"x_min":0,"x_max":0,"o":""},"Ë":{"ha":781,"x_min":0,"x_max":0,"o":""},"Ì":{"ha":446,"x_min":0,"x_max":0,"o":""},"Í":{"ha":446,"x_min":0,"x_max":0,"o":""},"Î":{"ha":446,"x_min":0,"x_max":0,"o":""},"Ï":{"ha":446,"x_min":0,"x_max":0,"o":""},"Ð":{"ha":1029,"x_min":0,"x_max":0,"o":""},"Ñ":{"ha":1054,"x_min":0,"x_max":0,"o":""},"Ò":{"ha":1095,"x_min":0,"x_max":0,"o":""},"Ó":{"ha":1095,"x_min":0,"x_max":0,"o":""},"Ô":{"ha":1095,"x_min":0,"x_max":0,"o":""},"Õ":{"ha":1095,"x_min":0,"x_max":0,"o":""},"Ö":{"ha":1095,"x_min":0,"x_max":0,"o":""},"×":{"ha":688,"x_min":0,"x_max":0,"o":""},"Ø":{"ha":1095,"x_min":0,"x_max":0,"o":""},"Ù":{"ha":1018,"x_min":0,"x_max":0,"o":""},"Ú":{"ha":1018,"x_min":0,"x_max":0,"o":""},"Û":{"ha":1018,"x_min":0,"x_max":0,"o":""},"Ü":{"ha":1018,"x_min":0,"x_max":0,"o":""},"Ý":{"ha":836,"x_min":0,"x_max":0,"o":""},"Þ":{"ha":760,"x_min":0,"x_max":0,"o":""},"ß":{"ha":848,"x_min":0,"x_max":0,"o":""},"à":{"ha":625,"x_min":0,"x_max":0,"o":""},"á":{"ha":625,"x_min":0,"x_max":0,"o":""},"â":{"ha":625,"x_min":0,"x_max":0,"o":""},"ã":{"ha":625,"x_min":0,"x_max":0,"o":""},"ä":{"ha":625,"x_min":0,"x_max":0,"o":""},"å":{"ha":625,"x_min":0,"x_max":0,"o":""},"æ":{"ha":986,"x_min":0,"x_max":0,"o":""},"ç":{"ha":614,"x_min":0,"x_max":0,"o":""},"è":{"ha":616,"x_min":0,"x_max":0,"o":""},"é":{"ha":616,"x_min":0,"x_max":0,"o":""},"ê":{"ha":616,"x_min":0,"x_max":0,"o":""},"ë":{"ha":616,"x_min":0,"x_max":0,"o":""},"ì":{"ha":349,"x_min":0,"x_max":0,"o":""},"í":{"ha":349,"x_min":0,"x_max":0,"o":""},"î":{"ha":349,"x_min":0,"x_max":0,"o":""},"ï":{"ha":349,"x_min":0,"x_max":0,"o":""},"ð":{"ha":772,"x_min":0,"x_max":0,"o":""},"ñ":{"ha":751,"x_min":0,"x_max":0,"o":""},"ò":{"ha":685,"x_min":0,"x_max":0,"o":""},"ó":{"ha":685,"x_min":0,"x_max":0,"o":""},"ô":{"ha":685,"x_min":0,"x_max":0,"o":""},"õ":{"ha":685,"x_min":0,"x_max":0,"o":""},"ö":{"ha":685,"x_min":0,"x_max":0,"o":""},"÷":{"ha":688,"x_min":0,"x_max":0,"o":""},"ø":{"ha":685,"x_min":0,"x_max":0,"o":""},"ù":{"ha":718,"x_min":0,"x_max":0,"o":""},"ú":{"ha":718,"x_min":0,"x_max":0,"o":""},"û":{"ha":718,"x_min":0,"x_max":0,"o":""},"ü":{"ha":718,"x_min":0,"x_max":0,"o":""},"ý":{"ha":589,"x_min":0,"x_max":0,"o":""},"þ":{"ha":685,"x_min":0,"x_max":0,"o":""},"ÿ":{"ha":589,"x_min":0,"x_max":0,"o":""},"ı":{"ha":349,"x_min":0,"x_max":0,"o":""},"ˆ":{"ha":694,"x_min":0,"x_max":0,"o":""},"ˇ":{"ha":694,"x_min":0,"x_max":0,"o":""},"ˉ":{"ha":694,"x_min":0,"x_max":0,"o":""},"˘":{"ha":694,"x_min":0,"x_max":0,"o":""},"˙":{"ha":694,"x_min":0,"x_max":0,"o":""},"˚":{"ha":694,"x_min":0,"x_max":0,"o":""},"˛":{"ha":694,"x_min":0,"x_max":0,"o":""},"˜":{"ha":384,"x_min":0,"x_max":0,"o":""},"˝":{"ha":694,"x_min":0,"x_max":0,"o":""},"–":{"ha":751,"x_min":0,"x_max":0,"o":""},"—":{"ha":1389,"x_min":0,"x_max":0,"o":""},"‘":{"ha":120,"x_min":19,"x_max":102,"o":"m 74 930 q 102 899 96 930 q 80 857 80 874 q 83 818 80 842 q 80 811 80 812 q 85 783 85 795 q 72 763 85 777 l 72 762 q 80 753 80 762 l 80 745 l 64 745 q 19 853 34 779 q 74 930 19 922 z "},"’":{"ha":114,"x_min":19,"x_max":102,"o":"m 47 930 q 102 852 102 921 q 56 744 87 779 l 41 744 l 41 753 q 49 762 41 762 l 49 762 q 35 783 35 777 q 41 810 35 795 q 38 817 41 812 q 41 856 41 841 q 19 898 41 873 q 47 930 24 930 z "},"‚":{"ha":107,"x_min":21,"x_max":106,"o":"m 50 927 q 84 852 106 922 q 48 740 75 777 l 33 739 l 32 747 q 39 757 31 756 l 39 758 q 24 777 24 770 q 26 805 22 789 q 23 812 26 806 q 23 850 24 836 q 24 897 21 869 q 50 927 27 925 z "},"“":{"ha":201,"x_min":19,"x_max":180,"o":"m 118 929 l 125 929 q 157 848 147 929 l 180 785 l 180 781 q 169 770 180 770 l 167 770 q 121 819 147 770 q 97 903 106 849 l 97 905 q 118 929 97 929 m 44 916 q 106 789 75 916 l 106 779 q 92 747 106 754 q 66 779 75 747 q 19 891 37 857 q 44 916 19 911 z "},"”":{"ha":179,"x_min":15,"x_max":168,"o":"m 77 933 q 99 905 92 933 q 48 791 84 846 q 24 766 43 791 q 15 779 20 779 q 20 795 18 795 l 18 799 l 53 901 q 77 933 53 933 m 138 930 q 168 904 168 921 q 85 766 125 777 l 76 785 q 84 783 84 785 q 82 792 82 789 q 130 924 102 859 q 138 930 138 924 z "},"„":{"ha":182,"x_min":15,"x_max":165,"o":"m 45 932 q 81 907 61 932 q 70 784 91 844 q 54 762 63 784 q 41 771 45 771 q 35 789 37 789 l 36 787 l 31 899 q 45 932 15 932 m 117 932 q 159 912 152 926 q 121 764 165 773 l 109 774 q 117 776 117 774 q 109 785 111 783 q 108 927 102 857 q 117 932 119 927 z "},"†":{"ha":688,"x_min":0,"x_max":0,"o":""},"‡":{"ha":688,"x_min":0,"x_max":0,"o":""},"•":{"ha":694,"x_min":0,"x_max":0,"o":""},"…":{"ha":1389,"x_min":0,"x_max":0,"o":""},"‹":{"ha":428,"x_min":0,"x_max":0,"o":""},"›":{"ha":428,"x_min":0,"x_max":0,"o":""},"⁄":{"ha":232,"x_min":0,"x_max":0,"o":""},"∕":{"ha":232,"x_min":0,"x_max":0,"o":""},"₣":{"ha":688,"x_min":0,"x_max":0,"o":""},"₤":{"ha":688,"x_min":0,"x_max":0,"o":""},"₧":{"ha":1375,"x_min":0,"x_max":0,"o":""},"€":{"ha":688,"x_min":0,"x_max":0,"o":""},"№":{"ha":1540,"x_min":0,"x_max":0,"o":""},"™":{"ha":1015,"x_min":0,"x_max":0,"o":""},"∂":{"ha":688,"x_min":0,"x_max":0,"o":""},"∆":{"ha":733,"x_min":0,"x_max":0,"o":""},"∏":{"ha":1027,"x_min":0,"x_max":0,"o":""},"∑":{"ha":818,"x_min":0,"x_max":0,"o":""},"−":{"ha":688,"x_min":0,"x_max":0,"o":""},"√":{"ha":688,"x_min":0,"x_max":0,"o":""},"∞":{"ha":688,"x_min":0,"x_max":0,"o":""},"∫":{"ha":451,"x_min":0,"x_max":0,"o":""},"≈":{"ha":688,"x_min":0,"x_max":0,"o":""},"≤":{"ha":688,"x_min":0,"x_max":0,"o":""},"≥":{"ha":688,"x_min":0,"x_max":0,"o":""},"":{"ha":728,"x_min":0,"x_max":0,"o":""},"ﬁ":{"ha":728,"x_min":0,"x_max":0,"o":""},"":{"ha":733,"x_min":0,"x_max":0,"o":""},"ﬂ":{"ha":733,"x_min":0,"x_max":0,"o":""}}}
